<svg xmlns="http://www.w3.org/2000/svg" viewBox="0 0 500 500"><defs><clipPath id="prefix__a"><path transform="rotate(90 109.785 379.745)" fill="#6957e7" stroke="#263238" stroke-linecap="round" stroke-linejoin="round" d="M90.84 354.72h37.9v50.05h-37.9z"/></clipPath><clipPath id="prefix__b"><path d="M284.2 432.43s13-4.79 15.55 4.79c0 0-2.32 10.55-.93 16.31s8.38 16.79 8.82 18.89c.84 4.09.2 4.37.2 4.37s-5.09 2.94-11.92-.21-18.68-16.7-20.53-19.49 5.8-13.83 5.8-13.83z" fill="#fff" stroke="#263238" stroke-linecap="round" stroke-linejoin="round"/></clipPath><clipPath id="prefix__c"><path d="M235.31 267.16s-16.15 23.2-8.06 60.86c0 0 1.7 2 3.88-4.29 0 0 3.46 12.07 31.85 4.29l1.63-8.64 6.1 8.64s12.13-18.53 29.49-21.69c0 0-7.74-16.13-14.77-25.67l-5.84-17.45z" fill="#263238" stroke="#263238" stroke-miterlimit="10"/></clipPath><clipPath id="prefix__d"><path d="M245 445.38s5.54-3.95 17-3.16c0 0 .83 13.75 2.39 17.75s9.78 10.93 11.31 12.12 1.53 5.34 1.53 5.34h-34.82a110.26 110.26 0 012.76-17.66z" fill="#fff" stroke="#263238" stroke-linecap="round" stroke-linejoin="round"/></clipPath><clipPath id="prefix__e"><path d="M274.65 192.39s11.83 17 13.13 23.55-8.19 27.72-4.63 51.85c0 0 6.44 12.56 2.28 12.87 0 0-7-1.5-14.48 4.17-12.51 9.45-31.62 23.08-46 23.08 0 0-5.68-2-4-5.54a62.76 62.76 0 014-7.12s3.54-47.87 0-57.76c-1.24-3.46-3.91-15.24-3.91-15.24-.55-16.67-4.38-23.29-4.38-23.29s9.86-2.54 30.84-2.58c.03 0 23.37-4.69 27.15-3.99z" fill="#6957e7" stroke="#263238" stroke-linecap="round" stroke-linejoin="round"/></clipPath><clipPath id="prefix__f"><path d="M271 192.65s-.54-3.42 4.74-3 10 12.38 9.92 20.73c-.05-.03-9.5-14.9-14.66-17.73z" fill="#6957e7" stroke="#263238" stroke-linecap="round" stroke-linejoin="round"/></clipPath><clipPath id="prefix__g"><path d="M221.08 222.25s2.56-1.64 3.9-6.78c2.27-8.7-2.78-17.51-2.78-17.51-2.4-3.46-9.07-1.49-7.49 2s5.58 6.51 6.37 22.29z" fill="#6957e7" stroke="#263238" stroke-linecap="round" stroke-linejoin="round"/></clipPath></defs><path d="M67.93 167.09s-27.88 72 11.3 144.5 119.88 110.8 184.47 143.55 131.66 16.8 163.53-36.84-11.84-91.93-11.9-168.42 11.45-96.74-30-161.36-143.06-78.93-219.9-31-97.5 109.57-97.5 109.57z" fill="#fff" opacity=".7"/><path d="M38.92 282.72a108.62 108.62 0 015.78-64.5c11.56-28.56 36.37-48.85 64.18-60.69 40.4-17.21 80.12-17.53 112.91-51.25 10.13-10.4 18.64-22.31 29-32.49 30.52-30 75.19-26.4 108.55-2.58 69.59 49.69 94.62 148.11 90.75 229.47-1.74 36.51-19.17 70.49-46.76 94.45-62.4 54.18-168.36 45.06-240 16.78-53.5-21.09-111.86-70.29-124.41-129.19z" fill="#6957e7"/><path d="M38.92 282.72a108.62 108.62 0 015.78-64.5c11.56-28.56 36.37-48.85 64.18-60.69 40.4-17.21 80.12-17.53 112.91-51.25 10.13-10.4 18.64-22.31 29-32.49 30.52-30 75.19-26.4 108.55-2.58 69.59 49.69 94.62 148.11 90.75 229.47-1.74 36.51-19.17 70.49-46.76 94.45-62.4 54.18-168.36 45.06-240 16.78-53.5-21.09-111.86-70.29-124.41-129.19z" fill="#fff" opacity=".7"/><path fill="none" stroke="#263238" stroke-linecap="round" stroke-linejoin="round" d="M63.85 480h372.3"/><g><path fill="none" stroke="#263238" stroke-linecap="round" stroke-linejoin="round" d="M218.89 97.56v22.99l8.57 8.64"/><path d="M229.06 129.19a1.6 1.6 0 11-1.6-1.59 1.6 1.6 0 011.6 1.59z" fill="#fff" stroke="#263238" stroke-linecap="round" stroke-linejoin="round"/><rect x="184.73" y="29.37" width="69.19" height="69.19" rx="7.9" fill="#fff" stroke="#263238" stroke-linecap="round" stroke-linejoin="round"/><rect x="362.05" y="95.67" width="69.19" height="69.19" rx="7.9" fill="#fff" stroke="#263238" stroke-linecap="round" stroke-linejoin="round"/><path fill="none" stroke="#263238" stroke-linecap="round" stroke-linejoin="round" d="M362.05 130.26h-63.5l-20.21 20.3"/><path d="M279.93 150.56a1.59 1.59 0 11-1.59-1.59 1.59 1.59 0 011.59 1.59z" fill="#fff" stroke="#263238" stroke-linecap="round" stroke-linejoin="round"/><rect x="387.79" y="282.81" width="69.19" height="69.19" rx="7.9" fill="#fff" stroke="#263238" stroke-linecap="round" stroke-linejoin="round"/><path fill="none" stroke="#263238" stroke-linecap="round" stroke-linejoin="round" d="M387.79 317.41H350.3l-56.83-56.83"/><path d="M295.06 260.58a1.59 1.59 0 11-1.59-1.59 1.59 1.59 0 011.59 1.59z" fill="#fff" stroke="#263238" stroke-linecap="round" stroke-linejoin="round"/><rect x="75.26" y="342.99" width="69.19" height="69.19" rx="7.9" fill="#fff" stroke="#263238" stroke-linecap="round" stroke-linejoin="round"/><path fill="none" stroke="#263238" stroke-linecap="round" stroke-linejoin="round" d="M109.86 342.99v-30.71l56.57-42.26"/><path d="M168 270a1.6 1.6 0 11-1.6-1.59A1.6 1.6 0 01168 270z" fill="#fff" stroke="#263238" stroke-linecap="round" stroke-linejoin="round"/><rect x="53.14" y="147.26" width="69.19" height="69.19" rx="7.9" fill="#fff" stroke="#263238" stroke-linecap="round" stroke-linejoin="round"/><path fill="none" stroke="#263238" stroke-linecap="round" stroke-linejoin="round" d="M122.33 181.86h74.39"/><path d="M198.31 181.86a1.59 1.59 0 11-1.59-1.6 1.59 1.59 0 011.59 1.6z" fill="#fff" stroke="#263238" stroke-linecap="round" stroke-linejoin="round"/><rect x="58.73" y="165.54" width="58.02" height="31.96" rx="3.54" fill="#6957e7" stroke="#263238" stroke-linecap="round" stroke-linejoin="round"/><path fill="#fff" d="M70.06 165.54h35.35v31.96H70.06z"/><path fill="#fff" stroke="#263238" stroke-linecap="round" stroke-linejoin="round" d="M70.06 186.35v-3.41"/><path fill="none" stroke="#263238" stroke-linecap="round" stroke-linejoin="round" d="M105.41 192.13v5.37H70.06v-9.05"/><path fill="#fff" stroke="#263238" stroke-linecap="round" stroke-linejoin="round" d="M105.41 174.15v7.37"/><path fill="none" stroke="#263238" stroke-linecap="round" stroke-linejoin="round" d="M70.06 171.79v-6.25h35.35v5.2"/><path d="M113.12 188.54a2.16 2.16 0 11-2.16-2.16 2.16 2.16 0 012.16 2.16zM112 173.42a1.08 1.08 0 11-1.08-1.08 1.08 1.08 0 011.08 1.08zM112 177.74a1.08 1.08 0 11-1.08-1.08 1.08 1.08 0 011.08 1.08zM113.12 176.66a1.08 1.08 0 010-2.16 1.08 1.08 0 010 2.16zM108.8 176.66a1.08 1.08 0 010-2.16 1.08 1.08 0 010 2.16z" fill="#263238"/><circle cx="64.51" cy="174.5" r="2.16" fill="#263238"/><path d="M63.43 189.62a1.08 1.08 0 112.16 0 1.08 1.08 0 01-2.16 0zM63.43 185.3a1.08 1.08 0 112.16 0 1.08 1.08 0 01-2.16 0zM62.35 186.38a1.08 1.08 0 11-1.08 1.08 1.08 1.08 0 011.08-1.08zM66.67 186.38a1.08 1.08 0 11-1.08 1.08 1.08 1.08 0 011.08-1.08zM72.77 168.4h29.92v26.25H72.77z" fill="#263238"/><path d="M389.82 122s-4.24-7.28-10.18-7.26-5.23 15 8.56 15z" fill="#6957e7" stroke="#263238" stroke-linecap="round" stroke-linejoin="round"/><path d="M392.37 150.56s-12.73-45.67 2.83-45.67 5.94 44.88 5.94 44.88z" fill="#6957e7" stroke="#263238" stroke-linecap="round" stroke-linejoin="round"/><path d="M402 129.81s10.18-10.5 15.56-7.1-6.22 13.85-15.56 13.57" fill="#6957e7" stroke="#263238" stroke-linecap="round" stroke-linejoin="round"/><path d="M391.92 131a89 89 0 011.14 12M392.11 110.9c-1.56 5.57-1.32 11.34-.6 17M395.2 104.89a23 23 0 00-2 3.46M397.73 135.43c.17 3.86.28 7.73.31 11.6M396.61 118.38c0 4.76.68 9.47 1 14.21M398.54 106.62c-2.12 2.18-2 6-1.94 8.85M409 127.65c2.37-1.51 6.64-4.73 9.66-3.72M402 132.59c1.51-1.17 3.06-2.29 4.63-3.37M380.08 121a16.87 16.87 0 007.39 5.33M378 115.23a8.58 8.58 0 00.7 3.42" fill="none" stroke="#263238" stroke-linecap="round" stroke-linejoin="round"/><path fill="#263238" d="M410.32 157.53h-26.59l-2-11.59h30.59l-2 11.59z"/><path d="M225.11 42.75s.5-2.63 4-2.23 3.06 5.34-1 6.23-5.4.53-5.84 2.06a1.44 1.44 0 002.34 1.53M212.48 42.75s-.5-2.63-4-2.23-3.07 5.34 1 6.23 5.4.53 5.83 2.06a1.44 1.44 0 01-2.31 1.53" fill="none" stroke="#263238" stroke-linecap="round" stroke-linejoin="round"/><path d="M222.1 48c3.68-2.46 3.39-8.06 3.39-8.06H212.1s-.29 5.6 3.39 8.06 2.71 8.51 0 9.72h6.61c-2.71-1.23-3.69-7.27 0-9.72z" fill="#6957e7" stroke="#263238" stroke-linecap="round" stroke-linejoin="round"/><path fill="#757575" stroke="#263238" stroke-linecap="round" stroke-linejoin="round" d="M213.47 57.7h10.65v4.03h-10.65z"/><path fill="#6957e7" stroke="#263238" stroke-linecap="round" stroke-linejoin="round" d="M209.48 61.73h18.63v27.92h-18.63zM228.11 71.02h18.63v18.63h-18.63zM190.84 77.39h18.63v12.26h-18.63z"/><path d="M217.36 72.09a1.12 1.12 0 001.25-.91h.77v7.23h-1.14V72.9h-.88zM236.71 77.83c-.36 0-.59.2-.59.72v.77h-1.07v-.7c0-1.16.58-1.82 1.69-1.82s1.69.66 1.69 1.82a4 4 0 01-1.4 2.86c-.67.72-.86 1.06-.86 1.45a.76.76 0 000 .15h2.15v1h-3.28v-.89a3.15 3.15 0 011.13-2.31 3 3 0 001.12-2.26c.01-.62-.22-.79-.58-.79zM200.38 81.55c0-.65-.23-.82-.59-.82s-.59.19-.59.71v.47h-1.07v-.4a1.7 1.7 0 113.39 0v.19a1.4 1.4 0 01-.8 1.48 1.46 1.46 0 01.8 1.51v.56c0 1.16-.58 1.82-1.7 1.82s-1.69-.66-1.69-1.82v-.6h1.07v.68c0 .51.23.71.59.71s.59-.18.59-.82v-.57c0-.67-.23-.91-.74-.91h-.39v-1h.45c.42 0 .68-.18.68-.76z" fill="#263238"/><path fill="none" stroke="#263238" stroke-linecap="round" stroke-linejoin="round" d="M81.43 357.46h56.72v44.57H81.43z"/><path fill="#6957e7" d="M134.81 360.8v37.9H84.76v-37.9z"/><g clip-path="url(#prefix__a)"><path fill="#fff" opacity=".5" d="M134.81 378.43v-7.04l-14.44 21.31-9.84-5.89 18.11-26.01h-5.72l-7.91 11.23-7.45-3.79v-7.44h-4.87v9.56l9.75 5.33-6.08 8.62-21.6-12.92v4.84l19.36 11.27-7.89 11.2h6.02l6.09-8.75 15.02 8.75h7.04l-6.58-3.94 10.99-16.33z"/></g><path fill="none" stroke="#263238" stroke-linecap="round" stroke-linejoin="round" d="M134.81 360.8v37.9H84.76v-37.9z"/><path d="M130.88 351.37a10.31 10.31 0 00-14.59 0 10.31 10.31 0 000 14.59l7.3 7.29 7.29-7.29a10.31 10.31 0 000-14.59zm-4.29 10.29a4.25 4.25 0 110-6 4.24 4.24 0 010 6z" fill="#263238"/><path d="M422.74 295.92h0c-14.14 11.56-14.14 30.31 0 41.87h0c14.13-11.56 14.13-30.31 0-41.87z" fill="#6957e7" stroke="#263238" stroke-linecap="round" stroke-linejoin="round"/><path fill="none" stroke="#263238" stroke-linecap="round" stroke-linejoin="round" d="M422.74 337.79v-36.37M426.93 307.07l-4.19 4.19-4.2-4.19M426.93 315.31l-4.19 4.2-4.2-4.2M426.93 323.56l-4.19 4.19-4.2-4.19M447.16 302.57c0-3.47-2-7.28-4.51-7.28s-4.52 3.81-4.52 7.28c0 2.89 1.42 4.61 3.33 5.11v28.92a1.19 1.19 0 102.37 0v-28.92c1.92-.5 3.33-2.22 3.33-5.11zM406.61 296.08a.86.86 0 00-.86-.79h-.62v6.28h-1.48v-5.42a.87.87 0 00-1.73 0v5.42h-1.49v-6.28h-.61a.86.86 0 00-.86.79l-.64 7.48a3.24 3.24 0 003.22 3.51h.06v29.53a1.19 1.19 0 102.37 0v-29.53h0a3.24 3.24 0 003.22-3.51z"/></g><g><path d="M275.09 455.74l-1 2.93a59.22 59.22 0 005.08 7.15s1-.33 2.65 1.12a6.13 6.13 0 011.76 3.76s7.63 9.17 17.33 9.3 6.77-4.75 6.77-4.75z" fill="#6957e7" stroke="#263238" stroke-linecap="round" stroke-linejoin="round"/><path d="M284.2 432.43s13-4.79 15.55 4.79c0 0-2.32 10.55-.93 16.31s8.38 16.79 8.82 18.89c.84 4.09.2 4.37.2 4.37s-5.09 2.94-11.92-.21-18.68-16.7-20.53-19.49 5.8-13.83 5.8-13.83z" fill="#fff"/><g clip-path="url(#prefix__b)"><path d="M284.2 432.43s13-4.79 15.55 4.79c0 0-2.32 10.55-.93 16.31s8.38 16.79 8.82 18.89c.84 4.09.2 4.37.2 4.37s-5.09 2.94-11.92-.21-18.68-16.7-20.53-19.49 5.8-13.83 5.8-13.83z" fill="#6957e7" opacity=".4"/></g><path d="M284.2 432.43s13-4.79 15.55 4.79c0 0-2.32 10.55-.93 16.31s8.38 16.79 8.82 18.89c.84 4.09.2 4.37.2 4.37s-5.09 2.94-11.92-.21-18.68-16.7-20.53-19.49 5.8-13.83 5.8-13.83z" fill="none" stroke="#263238" stroke-linecap="round" stroke-linejoin="round"/><path d="M281.19 443.26s.35 13.67 3 16.45 4.64 0 4.64 0-.23 4.17-4.37 3.33-4.31-10.74-4.52-17.86z" fill="#6957e7" stroke="#263238" stroke-linecap="round" stroke-linejoin="round"/><path d="M290.85 446a28.23 28.23 0 003.26 18.81" fill="none" stroke="#263238" stroke-linecap="round" stroke-linejoin="round"/><path d="M294.11 467.28a8.76 8.76 0 005.56 5.14 15.47 15.47 0 008 0l-3.12-6.33a19.88 19.88 0 01-10.44 1.19z" fill="#6957e7" stroke="#263238" stroke-linecap="round" stroke-linejoin="round"/><path d="M292.27 463.47s6.8.4 10.35-1M291 459.71s6.35 1 9.9-1M289.93 455.55s5.57.81 9.2-.92M289.31 450.82s6.19 1.95 9.13 0" fill="none" stroke="#263238" stroke-linecap="round" stroke-linejoin="round"/><path d="M288.38 439.16L287.3 446s8.19 5.41 13.61-1.34v-7.11s-2.03 4.76-12.53 1.61z" fill="#6957e7" stroke="#263238" stroke-linecap="round" stroke-linejoin="round"/><path d="M235.31 267.16s-12 34.93-6.69 57.82 7 32.28 6.69 44.72S248 446.81 248 446.81h11.86s-1.76-56-1.68-69.57-2.45-9.86.67-23 .8-26.38 5.12-40.62c0 0 23.31 40.09 27.53 45.89 0 0-4.69 17.61-4.16 32.58.61 17.53-.94 43.92-.94 43.92s2.65 4.95 9.9 3c0 0 18.94-78.11 17.88-82s-8.44-46.14-28.71-74.19c0 0-3.46-11.94-5.84-19.58z" fill="#fff" stroke="#263238" stroke-linecap="round" stroke-linejoin="round"/><path d="M235.31 267.16s-16.15 23.2-8.06 60.86c0 0 1.7 2 3.88-4.29 0 0 3.46 12.07 31.85 4.29l1.63-8.64 6.1 8.64s12.13-18.53 29.49-21.69c0 0-7.74-16.13-14.77-25.67l-5.84-17.45z" fill="#263238"/><g clip-path="url(#prefix__c)"><path d="M265.06 316.85s0-1.56 1.87-6.17c1.79-4.46 6.86-14.51 11.61-15.3M269.31 298.42s-4.75 10.68-13.72 14.1" fill="none" stroke="#fff" stroke-linecap="round" stroke-linejoin="round"/><path d="M263.38 325.9L263 328c-28.39 7.78-31.85-4.28-31.85-4.28-2.15 6.28-3.9 4.28-3.9 4.28-.05-.23-.1-.47-.14-.7 2.16-2.84 2.84-7.93 2.84-7.93-1-32.64 4.74-43.89 4.74-43.89h3.17c-4.55 7.74-4.75 43.89-4.75 43.89s1 5.93 11.67 8.3c6.38 1.44 14.37-.48 18.6-1.77zM300.21 306.33C282.84 309.5 270.72 328 270.72 328l-.8-1.12c2.48-4.61 12.24-21.07 26.68-22.93a7.79 7.79 0 001-2.79c1.62 3.1 2.61 5.17 2.61 5.17z" fill="#6957e7"/><path d="M271.58 302.15s2.22 10.2 3.3 20.52a54.24 54.24 0 00-4.16 5.35l-5.78-8.18c.6-4.49 2.25-12.62 6.64-17.69zM286.1 281.57c-7.32 3.13-25.17 11.23-34.46 19.6s-18.66 14.1-26.36 13.49c-2.35-29.71 10-47.49 10-47.49l44.28-4 5.85 17.45z" opacity=".2"/></g><path d="M235.31 267.16s-16.15 23.2-8.06 60.86c0 0 1.7 2 3.88-4.29 0 0 3.46 12.07 31.85 4.29l1.63-8.64 6.1 8.64s12.13-18.53 29.49-21.69c0 0-7.74-16.13-14.77-25.67l-5.84-17.45z" fill="none" stroke="#263238" stroke-miterlimit="10"/><path d="M245 445.38s5.54-3.95 17-3.16c0 0 .83 13.75 2.39 17.75s9.78 10.93 11.31 12.12 1.53 5.34 1.53 5.34h-34.82a110.26 110.26 0 012.76-17.66z" fill="#fff"/><g clip-path="url(#prefix__d)"><path d="M245 445.38s5.54-3.95 17-3.16c0 0 .83 13.75 2.39 17.75s9.78 10.93 11.31 12.12 1.53 5.34 1.53 5.34h-34.82a110.26 110.26 0 012.76-17.66z" fill="#6957e7" opacity=".4"/></g><path d="M245 445.38s5.54-3.95 17-3.16c0 0 .83 13.75 2.39 17.75s9.78 10.93 11.31 12.12 1.53 5.34 1.53 5.34h-34.82a110.26 110.26 0 012.76-17.66z" fill="none" stroke="#263238" stroke-linecap="round" stroke-linejoin="round"/><path d="M245.17 459.77s3.43 6.91 5.81 7.83 2.63-2.24 2.63-2.24.66 4.62-1.05 5.27-6.09-3.59-8-8.32z" fill="#6957e7" stroke="#263238" stroke-linecap="round" stroke-linejoin="round"/><path d="M252.16 447.16s.83 12.66 2.79 16a23.13 23.13 0 003.86 5" fill="none" stroke="#263238" stroke-linecap="round" stroke-linejoin="round"/><path d="M259.81 469.91s1.75 2.18 3.69 2.47 12.19-.29 12.19-.29l-4.18-3.62s-8.51-1.47-11.7 1.44z" fill="#6957e7" stroke="#263238" stroke-linecap="round" stroke-linejoin="round"/><path d="M256.15 466.94s7.43-4.26 12.71-1M254.36 464.05s5.18-4.05 11.3-1.83M252.16 459.63s5.58-4.33 11.46-1.57M251.41 454.13s6.76-3.64 11.68-.88" fill="none" stroke="#263238" stroke-linecap="round" stroke-linejoin="round"/><path d="M242.41 477.43V480h4a7 7 0 016.7 0h18.79a13.6 13.6 0 005.73-1.29l-.39-1.28zM247.39 444.59l.89 5.61s10.45-3.39 16.22-1.19v-6.9s-10.75-3.78-17.11 2.48z" fill="#6957e7" stroke="#263238" stroke-linecap="round" stroke-linejoin="round"/><path d="M216.86 200c-4.85-4-51.4 44.05-50.41 48s23.74 48.46 27.5 50.44 18.35 6.34 19.49 1.58l-14.33-7.69s-5.11-9.61-9.79-26.33c-2.66-9.64-5.66-17.62-5.66-17.62s21.36-21.48 27.69-23.5a84.07 84.07 0 019.73-2.62s2.28-16.88-4.22-22.26zM274.65 192.72c8.8-3.11 16.43 6.06 25.73 12.1 8.35 5.42 15.26 9.67 15.26 9.67-8.64-10.78-8.41-23.75-19.1-44.12l6.82-3.42s18.83 26.06 26.81 44.21a39 39 0 013.34 17.64s-3.31 5.18-12.28 2.84c-14.23-3.69-30.07-14.48-38-16.24z" fill="#fff" stroke="#263238" stroke-linecap="round" stroke-linejoin="round"/><path d="M274.65 192.39s11.83 17 13.13 23.55-8.19 27.72-4.63 51.85c0 0 6.44 12.56 2.28 12.87 0 0-7-1.5-14.48 4.17-12.51 9.45-31.62 23.08-46 23.08 0 0-5.68-2-4-5.54a62.76 62.76 0 014-7.12s3.54-47.87 0-57.76c-1.24-3.46-3.91-15.24-3.91-15.24-.55-16.67-4.38-23.29-4.38-23.29s9.86-2.54 30.84-2.58c.03 0 23.37-4.69 27.15-3.99z" fill="#6957e7"/><g clip-path="url(#prefix__e)"><path d="M267.33 258.29s-3.52 19.42-16.72 29.18-23.11 11.16-24 14.68a4.91 4.91 0 002.67 5.39 27 27 0 01-4.32.37s-5.68-2-4-5.54a64.55 64.55 0 014-7.12s3.55-47.86 0-57.75c-1.24-3.47-3.9-15.24-3.9-15.24a94.78 94.78 0 00-.86-10.25 17.16 17.16 0 015.34-1.65s9 11.5 9.23 21.89 23.73 6.44 27.8 3.27 8.13 1.58 8.13 1.58-12.22 16.64-26.2 22.56-11.59 23.85-3.75 22 22.33-16.52 26.58-23.37z" opacity=".2"/></g><path d="M274.65 192.39s11.83 17 13.13 23.55-8.19 27.72-4.63 51.85c0 0 6.44 12.56 2.28 12.87 0 0-7-1.5-14.48 4.17-12.51 9.45-31.62 23.08-46 23.08 0 0-5.68-2-4-5.54a62.76 62.76 0 014-7.12s3.54-47.87 0-57.76c-1.24-3.46-3.91-15.24-3.91-15.24-.55-16.67-4.38-23.29-4.38-23.29s9.86-2.54 30.84-2.58c.03 0 23.37-4.69 27.15-3.99z" fill="none" stroke="#263238" stroke-linecap="round" stroke-linejoin="round"/><path d="M271 192.65s-.54-3.42 4.74-3 10 12.38 9.92 20.73c-.05-.03-9.5-14.9-14.66-17.73z" fill="#6957e7"/><g clip-path="url(#prefix__f)"><path d="M271 192.65s-.54-3.42 4.74-3 10 12.38 9.92 20.73c-.05-.03-9.5-14.9-14.66-17.73z" fill="#fff" opacity=".4"/></g><path d="M271 192.65s-.54-3.42 4.74-3 10 12.38 9.92 20.73c-.05-.03-9.5-14.9-14.66-17.73z" fill="none" stroke="#263238" stroke-linecap="round" stroke-linejoin="round"/><path d="M221.08 222.25s2.56-1.64 3.9-6.78c2.27-8.7-2.78-17.51-2.78-17.51-2.4-3.46-9.07-1.49-7.49 2s5.58 6.51 6.37 22.29z" fill="#6957e7"/><g clip-path="url(#prefix__g)"><path d="M221.08 222.25s2.56-1.64 3.9-6.78c2.27-8.7-2.78-17.51-2.78-17.51-2.4-3.46-9.07-1.49-7.49 2s5.58 6.51 6.37 22.29z" fill="#fff" opacity=".4"/></g><path d="M221.08 222.25s2.56-1.64 3.9-6.78c2.27-8.7-2.78-17.51-2.78-17.51-2.4-3.46-9.07-1.49-7.49 2s5.58 6.51 6.37 22.29zM278.55 238.16c-6.55 13.84-14.95 27.52-26.1 38.22a62.06 62.06 0 01-11.68 9M281.17 232.25c-.44 1.1-.92 2.19-1.4 3.27M237.5 240.13c7.69 2.8 16.26 2.48 23.28-2M231.53 237.1a18.23 18.23 0 003.28 1.91M263.19 206.77s-1 10.81-17.35 10M221.47 201s-2.95 4.45-1.94 9.39M276.42 195s4-2.58 7.26 4.59" fill="none" stroke="#263238" stroke-linecap="round" stroke-linejoin="round"/><circle cx="213.44" cy="277.12" r="22.88" fill="#6957e7" stroke="#263238" stroke-linecap="round" stroke-linejoin="round"/><circle cx="209.96" cy="273.91" r="17.16" transform="rotate(-40.36 209.95 273.893)" fill="#fff" opacity=".4"/><path d="M191.8 269.68s8.08 18.84 24.89 20.82 19.1-8.48 19.1-8.48M221.47 255.69c7.44 4.57 10 47.6-16.39 42.73" fill="none" stroke="#263238" stroke-linecap="round" stroke-linejoin="round"/><path d="M203 256.75a21.52 21.52 0 004.7 10.41c5.41 6.33 7.9 16 4.26 22.3-2.8 4.88-8.71 6.13-15.26 3.28M235.47 270.93c.85 9.28-2.78 9.59-6.53 18.32a17.52 17.52 0 00-1.48 6.13" fill="none" stroke="#263238" stroke-linecap="round" stroke-linejoin="round"/><path d="M254.27 211.12c-11.53.92-22.6-12.66-22.6-12.66s6.25-.26 7-3.12c2.52-9-3.7-20.92-3.7-20.92s27.57 3 22.23 8.87a15.81 15.81 0 00-2.49 3.57c-2 4-1.1 7.18-.27 8a1.25 1.25 0 00.19.15c1.61.9 8.57.32 8.57.32s1.59 14.95-8.93 15.79z" fill="#fff" stroke="#263238" stroke-linecap="round" stroke-linejoin="round"/><path d="M235.3 202.26a31.18 31.18 0 0012.82 2.53l3.32 2M254.91 206.77l.44-2.26s5.81-1.31 7.84-4.54" fill="none" stroke="#263238" stroke-linecap="round" stroke-linejoin="round"/><path d="M254.48 194.87c-8.64 1.52-11.74-9.65-11.74-9.65s6.94-1.47 12 1.64c-2 3.98-1.09 7.14-.26 8.01zM240.62 144.52s2.18-5.73-10.48-7.71-21.56 12-15.43 24.8-2 23.07 3.17 27.82 8.76.79 8.76.79-1 .86-4.21-3.53 5.14-4.59 5.73-20.61 8.25-11.67 8.25-11.67z" fill="#263238"/><path d="M240.77 143.56s.06-2.36-6-2.36-9.59 9.23-4.19 12.92 10.19-10.56 10.19-10.56z" fill="#6957e7" stroke="#263238" stroke-linecap="round" stroke-linejoin="round"/><path d="M263.57 145.6a18.85 18.85 0 017.14 17.89c-1.8 11.69-8.77 22.18-22.59 20.79S224 173.5 227.25 157.19c4.42-22.19 36.32-18.98 36.32-11.59z" fill="#263238"/><path d="M254.77 145.84c18.84 2.78 9.75 30.53 7.8 37.42-.72 2.55-8.65 10-12.2 9.34-2.77-.53-12.64-8.85-13.14-12.3-1.34-9.18-3.65-37.58 17.54-34.46z" fill="#fff" stroke="#263238" stroke-linecap="round" stroke-linejoin="round"/><path d="M257.36 166.08c0 1.3-1.08 5 1.47 7.61 1.65 1.68-2.55 2.43-2.55 2.43M258.21 162.27s4-2.11 6.4 1.22M251.72 163.94s-3.93-4.17-7.2-3.41" fill="none" stroke="#263238" stroke-linecap="round" stroke-linejoin="round"/><path d="M261.78 169.15c-.15.76-.72 1.3-1.27 1.2s-.88-.82-.74-1.59.72-1.3 1.27-1.19.89.81.74 1.58z" fill="#263238"/><path d="M249.55 168.25a10.27 10.27 0 00-3.71-.71M248.57 177.35a14.18 14.18 0 006.78 3.83" fill="none" stroke="#263238" stroke-linecap="round" stroke-linejoin="round"/><path d="M249.71 178.38s-.1 2.83 1.7 3.74 3.5-1 3.5-1" fill="none" stroke="#263238" stroke-linecap="round" stroke-linejoin="round"/><path d="M268.48 152.45s.34 1.82-11.76 5.15c-11.71 3.21-18.26 5.13-19.93 13.22 0 0-4.21-6.16-4.06-12.87s7-15.69 21.51-14.23 14.24 8.73 14.24 8.73z" fill="#263238"/><path d="M237.9 168.28c.29-1.53-3.28-5.76-4.81-3.36-2.59 4.11-1.26 8 .95 9.63 1 .74 2.2 2.08 3.22 1" fill="#fff" stroke="#263238" stroke-linecap="round" stroke-linejoin="round"/><path d="M260.78 143.56s5 3.85-1.57 8.59-27.54 8.28-27.54 8.28M256.28 146.87a37.41 37.41 0 01-23.55 5.13M226.75 142.78s-7.49-1.1-10.06 5.18 2.72 16 3.7 22.86-1.07 9.44-1.07 9.44" fill="none" stroke="#fff" stroke-linecap="round" stroke-linejoin="round" opacity=".2"/><path d="M299.5 176s-2.37.17-6-2-11.57-2.89-11.57-2.89-.06-2.4 2.92-2.22a57.59 57.59 0 007.75-.39s-1.18-8.33-.36-9.31 10.57-1.94 11.93-.73 7.11 15.88 1.49 16.82" fill="#fff" stroke="#263238" stroke-linecap="round" stroke-linejoin="round"/><path d="M292.21 159.2c-1 0-1.65 7-1.45 6.88s2.17 1.65 3 1.82a2.85 2.85 0 001.69-.36 66.37 66.37 0 007.37 0c1-.27 1.63-2 .83-3.6" fill="#fff" stroke="#263238" stroke-linecap="round" stroke-linejoin="round"/><path d="M303.53 160.94a6.84 6.84 0 01-.88 4.16M295.41 167.54s-2.28-2.46-2.18-3.34a27.1 27.1 0 01.89-3.26M298 167.54s-1.68-2.37-1.59-3.3.79-3.81.79-3.81M301 167.65a5.33 5.33 0 01-.91-3.66 21.85 21.85 0 01.91-3.05M292.57 168.51a6.64 6.64 0 015.41 1.6" fill="none" stroke="#263238" stroke-linecap="round" stroke-linejoin="round"/></g></svg>