<svg xmlns="http://www.w3.org/2000/svg" data-name="Layer 1" width="910.915" height="727.466"><path d="M752.025 650.512a4.098 4.098 0 01.23-.34 6.959 6.959 0 01.76-1.35l25.16-35.2 20.73-28.99h35.36l-2.5 3.49-4.45 6.23-13.79 19.28-29.55 41.33 27.39 55.02c1.12 2.24-.79 5.46-4.24 7.18l-13.21 6.58a9.712 9.712 0 01-4.23 1.06c-1.86 0-3.41-.69-4.06-2l-34.05-68.4a3.963 3.963 0 01.45-3.89z" fill="#6957e7"/><path d="M799.607 648.403l-35.62-13.235a6.508 6.508 0 01-3.83-8.357l10.449-28.122a6.509 6.509 0 018.357-3.829l35.62 13.235a6.508 6.508 0 013.83 8.358l-10.449 28.121a6.5 6.5 0 01-8.357 3.83z" fill="#2f2e41"/><path d="M769.318 632.771a1.994 1.994 0 01-.704-.129 2.003 2.003 0 01-1.164-2.578l13.078-34.611a2 2 0 013.742 1.414l-13.078 34.611a2.004 2.004 0 01-1.874 1.293z" fill="#fff"/><path d="M826.795 719.652v-125.01a1.968 1.968 0 01.022-.348 7.443 7.443 0 014.763-6.637 7.313 7.313 0 012.715-.515h14.76a7.508 7.508 0 017.5 7.5v125.01a7.508 7.508 0 01-7.5 7.5h-14.76a7.508 7.508 0 01-7.5-7.5z" fill="#6957e7"/><path d="M818.785 641.632v-30a6.507 6.507 0 016.5-6.5h38a6.507 6.507 0 016.5 6.5v30a6.507 6.507 0 01-6.5 6.5h-38a6.507 6.507 0 01-6.5-6.5z" fill="#2f2e41"/><path d="M847.86 644.966a2.002 2.002 0 01-2-2v-37a2 2 0 014 0v37a2.002 2.002 0 01-2 2z" fill="#fff"/><path d="M779.526 499.556l-109.339-56.37a7.517 7.517 0 01-3.226-10.103l6.76-13.121a7.516 7.516 0 0110.103-3.225l109.342 56.37a7.106 7.106 0 011.518 1.048 7.471 7.471 0 011.706 9.056l-6.761 13.12a7.478 7.478 0 01-4.386 3.709 7.771 7.771 0 01-2.298.352 7.442 7.442 0 01-3.42-.836z" fill="#6957e7"/><path d="M781.651 502.797l-53.158-20.987a7.509 7.509 0 01-3.347-10.058l12.122-24.984a7.537 7.537 0 014.34-3.751 7.514 7.514 0 015.796.457l48.004 29.1a2.185 2.185 0 01.511.356c1.224 1.101 1.833 3.745 2.322 5.866l.078.33c.133.57.249 1.061.366 1.405l.04.132c.042.14.086.285.115.418a7.468 7.468 0 01-.578 5.155l-6.62 13.19a7.584 7.584 0 01-6.727 4.146 7.2 7.2 0 01-3.264-.775z" fill="#2f2e41"/><circle cx="820.863" cy="380.81" r="53.519" fill="#6957e7"/><path d="M823.987 409.646l.056-2c-3.72-.104-7-.337-9.466-2.138a6.148 6.148 0 01-2.381-4.528 3.514 3.514 0 011.153-2.895c1.636-1.382 4.269-.935 6.188-.055l1.655.76-3.174-23.191-1.981.271 2.699 19.727c-2.607-.767-5.023-.437-6.678.96a5.471 5.471 0 00-1.86 4.493 8.133 8.133 0 003.2 6.073c3.167 2.315 7.282 2.43 10.59 2.523zM795.466 377.571h10.771v2h-10.771zM829.466 377.571h10.771v2h-10.771zM772.076 614.106c-3.534-.204-6.29-6.015-6.29-13.302v-93.672a54.363 54.363 0 011.705-13.525 52.936 52.936 0 011.453-4.693 53.865 53.865 0 0117.025-23.88 45.918 45.918 0 012.728-2.06 53.642 53.642 0 0114.81-7.336 9.372 9.372 0 01-.222-2.006 9.51 9.51 0 019.5-9.5h14a9.51 9.51 0 019.5 9.5 9.373 9.373 0 01-.221 2.002 54.031 54.031 0 0137.721 51.498v93.672c0 7.474-2.855 13.328-6.5 13.328h-95a.74.74 0 01-.21-.026z" fill="#2f2e41"/><path d="M833.919 622.657a7.51 7.51 0 01-.983-3.576l-2.104-122.993a7.49 7.49 0 012.104-5.342l.002-.002a7.496 7.496 0 015.263-2.29l14.76-.247a7.495 7.495 0 017.578 6.621 5.955 5.955 0 01.049.742l2.111 123.002a7.518 7.518 0 01-7.377 7.625l-14.755.254a7.53 7.53 0 01-6.648-3.794z" fill="#6957e7"/><path d="M827.716 538.195a7.508 7.508 0 01-.965-3.208l.63-56.983a7.509 7.509 0 016.892-8.063l14.713-1.153a7.547 7.547 0 015.023 1.428c.151.114.302.254.45.353a14.035 14.035 0 001.147.86l.32.227c2.114 1.497 4.512 3.194 4.628 4.848l8.852 55.595a7.382 7.382 0 01-1.097 4.526 6.815 6.815 0 01-.677.94 6.475 6.475 0 01-.72.724 7.427 7.427 0 01-4.41 1.884l-27.69 1.786a7.508 7.508 0 01-7.096-3.764z" fill="#2f2e41"/><path d="M775.86 600.966a2.002 2.002 0 01-2-2v-97a2 2 0 014 0v97a2.002 2.002 0 01-2 2z" fill="#fff"/><path d="M869.402 368.096l-92.974-34.013a4 4 0 01-2.383-5.13l.315-1.487c7.26-19.849 31.328-32.34 51.176-25.08l28.61 10.467c19.848 7.261 28.475 30.764 21.214 50.613l-.828 2.248a4 4 0 01-5.13 2.382z" fill="#2f2e41"/><path d="M874.41 369.983c-129.588 4.782-140.91-11.5-101.427-37.104l8.377-15.413 96 35z" fill="#2f2e41"/><ellipse cx="985.402" cy="394.233" rx="4.5" ry="8.5" transform="rotate(-73.27 855.125 448.29)" fill="#2f2e41"/><path d="M283.586 0C190.67 0 115.089 75.581 115.089 168.497a167.593 167.593 0 0014.774 68.99c26.406 58.61 85.367 99.507 153.723 99.507a168.59 168.59 0 00168.497-168.497C452.083 75.581 376.488 0 283.586 0zm139.407 236.233a155.175 155.175 0 01-139.407 87.281c-65.687 0-121.965-41.073-144.49-98.887a153.876 153.876 0 01-10.527-56.13c0-85.475 69.542-155.017 155.017-155.017s155.017 69.542 155.017 155.017a153.935 153.935 0 01-15.61 67.736z" fill="#e6e6e6"/><path d="M283.586 337.494a169.2 169.2 0 01-152.537-96.266 7.279 7.279 0 01.548-7.234l.09-.132a7.173 7.173 0 0112.379.99c25.564 53.556 80.328 88.162 139.52 88.162a155.145 155.145 0 00133.618-76.976 7.176 7.176 0 016.26-3.588 7.05 7.05 0 016.162 3.593l.078.138a7.266 7.266 0 01-.038 7.222 169.646 169.646 0 01-146.08 84.09z" fill="#6957e7"/><path d="M245.608 183.908a19.776 19.776 0 11-13.871 5.808 19.515 19.515 0 0113.87-5.808m0-8.424a28.088 28.088 0 1028.074 28.103 28.088 28.088 0 00-28.073-28.103zm58.523-40.169a9.58 9.58 0 009.629-9.531v-.097a9.478 9.478 0 00-9.388-9.569h-.18a9.599 9.599 0 00-.181 19.197h.12zm20.13 48.593a19.776 19.776 0 11-13.871 5.808 19.515 19.515 0 0113.87-5.808m0-8.424a28.073 28.073 0 1028.074 28.072 28.073 28.073 0 00-28.073-28.072z" fill="#e6e6e6"/><path d="M318.633 154.632h-14.442l-8.877-18.083a9.414 9.414 0 00-14.893-1.986l-21.574 20.791a9.797 9.797 0 00-2.798 6.74c0 5.236 3.79 7.101 5.566 8.154 13.69 7.883 18.505 8.756 18.505 12.698v19.828a4.814 4.814 0 009.628 0v-27.08c0-3.971-9.147-7.221-14.533-11.433l14.713-15.496c5.627 8.575 8.215 15.496 11.434 15.496h17.271a4.814 4.814 0 10.016-9.629h-.016zM148.056 427.857c-4.147 0-7.58 12.074-8.246 27.906H60.026c-.665-15.832-4.099-27.906-8.246-27.906-4.623 0-8.372 14.992-8.372 33.487s3.749 33.487 8.372 33.487c4.147 0 7.58-12.074 8.246-27.906h79.784c.665 15.832 4.099 27.906 8.246 27.906 4.624 0 8.372-14.993 8.372-33.487s-3.748-33.487-8.372-33.487z" fill="#e6e6e6"/><path d="M186.92 411.902a99.773 99.773 0 1012.643 48.581 99.773 99.773 0 00-12.644-48.581zM99.76 552.294a91.358 91.358 0 11.92 0q-.46.002-.92 0z" fill="#e6e6e6"/><path d="M99.808 560.787a100.096 100.096 0 01-53.697-15.591 4.49 4.49 0 01-1.767-2.15l-.05-.13a4.403 4.403 0 011.345-5.067 4.345 4.345 0 015.166-.316 91.27 91.27 0 00129.202-120.577 4.35 4.35 0 01.672-5.134 4.41 4.41 0 015.154-.991l.125.058a4.456 4.456 0 012.015 1.889 100.267 100.267 0 01-88.118 148.01z" fill="#6957e7"/><path d="M467.366 360.697a99.804 99.804 0 10-.036 199.608h.036c.647 0 1.28 0 1.928-.027a99.8 99.8 0 00-1.928-199.581zm20.341 189.336a91.818 91.818 0 11-20.395-181.356h.054a91.818 91.818 0 0120.341 181.356z" fill="#e6e6e6"/><path d="M467.366 560.805a100.305 100.305 0 01-21.236-198.337 4.598 4.598 0 011.808-.023l.208.04a4.442 4.442 0 01.101 8.7 91.328 91.328 0 0019.133 180.627c.882-.009 1.74-.012 2.61-.038a4.138 4.138 0 014.212 3.242 4.003 4.003 0 01-2.272 4.639q-.881.404-1.77.793a4.107 4.107 0 01-1.584.35c-.402.007-.803.007-1.21.007z" fill="#6957e7"/><path d="M516.603 456.258a12.198 12.198 0 00-12.18 8.312h-9.828l-7.176-21.578a4.043 4.043 0 00-3.84-2.779h-.076a3.996 3.996 0 00-3.79 2.931l-11.244 39.24-13.215-79.364a4.057 4.057 0 00-7.933-.328l-13.392 61.878h-15.008a4.043 4.043 0 000 8.086h18.192a4.03 4.03 0 003.916-3.057l9.45-46.037 12.962 77.797a4.014 4.014 0 003.765 3.36h.227a4.055 4.055 0 003.891-2.93l12.558-43.864 3.967 11.951a4.076 4.076 0 003.84 2.78h12.912a12.13 12.13 0 1012.001-16.398z" fill="#e6e6e6"/><path d="M909.915 727.466h-183a1 1 0 010-2h183a1 1 0 010 2z" fill="#3f3d56"/></svg>