<svg xmlns="http://www.w3.org/2000/svg" viewBox="0 0 500 500"><ellipse cx="250" cy="337.58" rx="228.23" ry="135.42" fill="#f5f5f5"/><g fill="#e0e0e0"><path d="M341.09 250.87l-9.32-5.38a8 8 0 00-8 0L112.58 367.37a3 3 0 000 5.11l9.32 5.38a8 8 0 008 0l54.63-32 33.87 19.53a6.87 6.87 0 006.85 0L284 331.6a2.08 2.08 0 000-3.6l-34.26-19.74L341.09 256a3 3 0 000-5.13z"/><ellipse cx="322.96" cy="403.72" rx="46.4" ry="25.21"/></g><g fill="#e6e6e6"><path d="M160.37 76l-7.57 4.36v-6c0-3.49-2.85-4.7-6.34-2.69l-.26.16a13.16 13.16 0 00-4 3.8c-.2-5.93-5.2-7.91-11.2-4.43l-.46.27C124.34 75 119.3 83 119.3 89.15v10.5l-7 4c-3 1.71-5.38 5.53-5.38 8.49s2.42 4 5.38 2.27l9.3-5.37 18.22-10.52 20.52-11.85c3-1.71 5.38-5.53 5.38-8.49s-2.39-3.94-5.35-2.18zM109.16 66.88l-5.14 3v-4.12c0-2.36-1.93-3.18-4.3-1.81l-.18.1a9 9 0 00-2.74 2.58c-.14-4-3.5-5.34-7.59-3l-.32.18c-4.18 2.42-7.6 7.81-7.6 12V83l-4.74 2.7a7.59 7.59 0 00-3.65 5.76c0 2 1.64 2.7 3.65 1.54l6.31-3.64 12.36-7.14 13.93-8a7.59 7.59 0 003.65-5.76c.01-2.05-1.63-2.74-3.64-1.58z"/></g><path d="M420.29 275.33l2.52 1.13.95.43 2.12.94s.41-14 4.8-24.33 12.23-19.92 13.57-25.7-3.07-8-3.07-8c-9.33-3.55-18.38 10-20.89 21.32s0 34.21 0 34.21z" fill="#6957e7"/><path d="M420.29 275.33l2.52 1.13.95.43 2.12.94s.41-14 4.8-24.33 12.23-19.92 13.57-25.7-3.07-8-3.07-8c-9.33-3.55-18.38 10-20.89 21.32s0 34.21 0 34.21z" opacity=".4"/><path d="M422.81 276.46l.95.43c-2-39.35 15.45-53.3 15.63-53.44a.44.44 0 00.08-.64.45.45 0 00-.65-.09c-.18.14-17.82 14.22-16.01 53.74z" fill="#fff"/><path d="M421.22 271.2c-.15 3.61 3.74 10.1 3.74 10.1l6.67 4.72.88.62 9.77 6.92a8.84 8.84 0 007.36-5c2.6-5-1.15-10.39-.07-13.85s7.72-4.47 7.44-8.51-6.86-8.45-5.85-12.05 3.25-5 4-8a3.82 3.82 0 00-3-4.94c-2.24-.39-5.11.12-8 2.87s-4 4.64-7.23 5.44-6.64.29-8.37 3 .29 8.23-1.51 10.39-5.69 4.67-5.83 8.29z" fill="#6957e7"/><path d="M431.63 286l.88.62a78.27 78.27 0 014.22-20.05c5.58-1.68 13.12-1 13.19-1a.46.46 0 00.51-.42.48.48 0 00-.42-.51c-.31 0-7.25-.63-12.89.85 5.21-14 12.72-20.92 12.84-21a.46.46 0 10-.63-.68c-.11.1-8 7.41-13.35 22.11a.58.58 0 00-.09.29 79.36 79.36 0 00-4.26 19.79z" fill="#fff"/><path d="M284.42 317.3s0 2.94-2 4.08l-57.87 33a6.31 6.31 0 01-6.28 0l-26.77-15.26a3.13 3.13 0 01-1.56-3.17l2.82-19.44 4.32 2.61 61-33L257 296a11.17 11.17 0 005.69 11l1.2.67L279 316c-.11-.45-.17-.75-.17-.75l3.5-3s2.09 1.01 2.09 5.05z" fill="#263238"/><path d="M284.42 317.3s0 2.94-2 4.08l-57.87 33a6.33 6.33 0 01-2.52.81v-7.82l6.22-16.3s27.23-18 35.68-23.43L279 316c-.11-.45-.17-.75-.17-.75l3.5-3s2.09 1.01 2.09 5.05z" fill="#455a64"/><path d="M282.39 315.71l-57 32.57a6.26 6.26 0 01-6.2 0L197 335.79a2.86 2.86 0 01-.79-.66 3 3 0 01-.74-2.47l2.77-19.18L258.42 281l-1.05 9.77a11 11 0 005.63 10.76l19.39 10.73a2 2 0 010 3.45z" fill="#37474f"/><path d="M259.54 298.54l-63.29 36.59a3 3 0 01-.74-2.47l2.77-19.18L258.42 281l-1.05 9.77a11 11 0 002.17 7.77z" fill="#263238"/><path d="M342.5 52.85c0 .61-6.56 4.14-9.94 5.93v167.15a5.93 5.93 0 01-3 5.14L117.92 354.29l1.6 10.95c-2.61 1.06-6.43-.11-8.28-1.19a8.21 8.21 0 01-4.16-6.32V177.47a5.57 5.57 0 011.33-3.6 5.25 5.25 0 011.46-1.22L329.19 45s.14-.07.4-.17l.23-.08a9.37 9.37 0 018.18 1.5c4.59 3.1 4.49 5.8 4.5 6.6z" fill="#263238"/><path d="M342.5 52.85c0 .61-6.56 4.14-9.94 5.93V72L127.37 185.12l-19-11.25a5.25 5.25 0 011.46-1.22L329.19 45s.14-.07.4-.17l.23-.08a9.37 9.37 0 018.18 1.5c4.59 3.1 4.49 5.8 4.5 6.6z" fill="#455a64"/><path d="M342.51 53v179a5.94 5.94 0 01-3 5.15l-220 128.08a1.65 1.65 0 01-2.47-1.43V183.57a5.58 5.58 0 012.77-4.83L339.15 51.1a2.24 2.24 0 013.36 1.9z" fill="#37474f"/><path d="M331.49 63a2.08 2.08 0 013.13 1.8v154.33a5.56 5.56 0 01-2.75 4.79L127.24 343a1.53 1.53 0 01-2.3-1.33V186.21a5.19 5.19 0 012.58-4.49" fill="#fff"/><path d="M239.92 289.87l-21.58 12.56a2.25 2.25 0 01-3.39-1.95 6.27 6.27 0 013.12-5.42l20.11-11.71a2.74 2.74 0 014.12 2.37 4.81 4.81 0 01-2.38 4.15z" fill="#ebebeb"/><path d="M232.93 157.81l-1.27.73c-.43.25-.79.16-.89-.2a9.86 9.86 0 00-2.38-4.39c-.22-.24-.18-.73.12-1.21l.89-1.4c.41-.65.41-1.32 0-1.49l-3.67-1.55c-.41-.18-1.08.21-1.49.86l-.89 1.4a1.46 1.46 0 01-1.14.77 15.92 15.92 0 00-5.76.95c-.42.15-.72 0-.72-.47v-1.27c0-.58-.47-.78-1.06-.44l-5.19 3a2.18 2.18 0 00-1 1.66V156a1.9 1.9 0 01-.73 1.31 42 42 0 00-5.76 5.71c-.36.44-.83.66-1.14.54l-.89-.38c-.41-.17-1.08.21-1.49.86l-3.67 5.79c-.41.65-.41 1.32 0 1.49l1.1.64a1.1 1.1 0 01-.09.81 33.37 33.37 0 00-2.38 7.13 2 2 0 01-.89 1.24l-1.27.73a2.19 2.19 0 00-1.05 1.66v5.2c0 .58.47.78 1.05.44l1.27-.73c.43-.25.79-.15.89.21a9.91 9.91 0 002.38 4.39c.23.23.18.73-.12 1.21l-.89 1.4c-.41.65-.41 1.32 0 1.49l5.37 3.1 1.53-3.1a4.93 4.93 0 00.23-1.48h.06a15.64 15.64 0 005.76-.95c.42-.14.73 0 .73.47v1.27c0 .59.47.79 1 .45l5.19-3a2.18 2.18 0 001.06-1.66V191a1.88 1.88 0 01.72-1.31 41.34 41.34 0 005.76-5.7c.36-.44.83-.67 1.14-.54l.89.38c.41.17 1.08-.21 1.49-.86l3.67-5.8c.41-.65.41-1.31 0-1.49l-.89-.37c-.3-.13-.34-.58-.12-1.07a33.26 33.26 0 002.38-7.14 2 2 0 01.89-1.23l1.27-.73a2.19 2.19 0 001-1.67v-5.19c.07-.6-.42-.8-1-.47zm-9.77 10.62c-.59 5.45-4.73 12-9.85 15.46-6.72 4.6-12.39 2.63-12.39-3.95 0-6.15 5-14 11.16-17.6 6.6-3.81 11.86-1.11 11.08 6.09z" fill="#6957e7"/><path d="M232.93 157.82l-1.27.73c-.43.24-.79.15-.89-.21a9.94 9.94 0 00-2.37-4.34c-.23-.24-.19-.74.12-1.21l.88-1.4c.42-.65.42-1.32 0-1.5l-3.67-1.54c-.41-.18-1.08.21-1.49.86l-.88 1.39a1.48 1.48 0 01-1.14.78 14.12 14.12 0 00-3.79.39 16.54 16.54 0 00-2 .56c-.42.14-.72 0-.72-.47v-1.27a.56.56 0 00-.31-.57 1 1 0 00-.75.13l-5.19 3a2.2 2.2 0 00-1.06 1.66V156a1.86 1.86 0 01-.72 1.3 41.9 41.9 0 00-5.76 5.7c-.36.45-.84.68-1.14.55l-.88-.38c-.42-.18-1.09.21-1.49.86l-3.67 5.8c-.42.65-.42 1.31 0 1.48l1.1.64a1.1 1.1 0 01-.11.82 33.62 33.62 0 00-2.37 7.12 2 2 0 01-.89 1.24l-1.27.74a2.19 2.19 0 00-1.06 1.66v5.19c0 .58.48.78 1.06.44l1.27-.73c.43-.24.79-.15.89.21a9.68 9.68 0 002.39 4.38c.22.25.17.73-.13 1.21l-.88 1.41c-.42.65-.42 1.32 0 1.5l5.36 3.09 1.54-3.09a5.13 5.13 0 00.22-1.49h.14a15.87 15.87 0 005.75-.94c.42-.16.72 0 .72.46v1.28c0 .58.48.78 1.06.44l5.19-3a2.16 2.16 0 001.06-1.66V191a1.88 1.88 0 01.72-1.31 40.28 40.28 0 005.7-5.69c.38-.43.84-.66 1.14-.53l.9.38c.41.18 1.08-.22 1.49-.86l3.67-5.8c.42-.65.42-1.31 0-1.48l-.88-.39c-.31-.12-.35-.57-.13-1.07a33 33 0 002.38-7.13 2 2 0 01.89-1.23l1.27-.74a2.18 2.18 0 001-1.66v-5.19c.07-.62-.42-.82-1-.48zm-9.77 10.61c-.58 5.45-4.73 12-9.86 15.46-6.71 4.61-12.39 2.63-12.39-3.95 0-6.16 5-14 11.17-17.6 6.6-3.81 11.86-1.11 11.08 6.09z" fill="#6957e7"/><path d="M238.94 160.77l-5.25-3.07-.14 3.07a28.92 28.92 0 002.76 2.29 11.49 11.49 0 001.33 0zM208.67 196.99l5.37 3.1.23-2.91-2.8-.39-2.8.2z" fill="#6957e7"/><path d="M232.93 157.81l-1.27.73c-.43.25-.79.16-.89-.2a9.86 9.86 0 00-2.38-4.39c-.22-.24-.18-.73.12-1.21l.89-1.4c.41-.65.41-1.32 0-1.49l-3.67-1.55c-.41-.18-1.08.21-1.49.86l-.89 1.4a1.46 1.46 0 01-1.14.77 15.92 15.92 0 00-5.76.95c-.42.15-.72 0-.72-.47v-1.27c0-.58-.47-.78-1.06-.44l-5.19 3a2.18 2.18 0 00-1 1.66V156a1.9 1.9 0 01-.73 1.31 42 42 0 00-5.76 5.71c-.36.44-.83.66-1.14.54l-.89-.38c-.41-.17-1.08.21-1.49.86l-3.67 5.79c-.41.65-.41 1.32 0 1.49l1.1.64a1.1 1.1 0 01-.09.81 33.37 33.37 0 00-2.38 7.13 2 2 0 01-.89 1.24l-1.27.73a2.19 2.19 0 00-1.05 1.66v5.2c0 .58.47.78 1.05.44l1.27-.73c.43-.25.79-.15.89.21a9.91 9.91 0 002.38 4.39c.23.23.18.73-.12 1.21l-.89 1.4c-.41.65-.41 1.32 0 1.49l5.37 3.1 1.53-3.1a4.93 4.93 0 00.23-1.48h.06a15.64 15.64 0 005.76-.95c.42-.14.73 0 .73.47v1.27c0 .59.47.79 1 .45l5.19-3a2.18 2.18 0 001.06-1.66V191a1.88 1.88 0 01.72-1.31 41.34 41.34 0 005.76-5.7c.36-.44.83-.67 1.14-.54l.89.38c.41.17 1.08-.21 1.49-.86l3.67-5.8c.41-.65.41-1.31 0-1.49l-.89-.37c-.3-.13-.34-.58-.12-1.07a33.26 33.26 0 002.38-7.14 2 2 0 01.89-1.23l1.27-.73a2.19 2.19 0 001-1.67v-5.19c.07-.6-.42-.8-1-.47zm-9.77 10.62c-.59 5.45-4.73 12-9.85 15.46-6.72 4.6-12.39 2.63-12.39-3.95 0-6.15 5-14 11.16-17.6 6.6-3.81 11.86-1.11 11.08 6.09z" opacity=".2"/><path d="M232.93 157.82l-1.27.73c-.43.24-.79.15-.89-.21a9.94 9.94 0 00-2.37-4.34c-.23-.24-.19-.74.12-1.21l.88-1.4c.42-.65.42-1.32 0-1.5l-3.67-1.54c-.41-.18-1.08.21-1.49.86l-.88 1.39a1.48 1.48 0 01-1.14.78 14.12 14.12 0 00-3.79.39 16.54 16.54 0 00-2 .56c-.42.14-.72 0-.72-.47v-1.27a.56.56 0 00-.31-.57 1 1 0 00-.75.13l-5.19 3a2.2 2.2 0 00-1.06 1.66V156a1.86 1.86 0 01-.72 1.3 41.9 41.9 0 00-5.76 5.7c-.36.45-.84.68-1.14.55l-.88-.38c-.42-.18-1.09.21-1.49.86l-3.67 5.8c-.42.65-.42 1.31 0 1.48l1.1.64a1.1 1.1 0 01-.11.82 33.62 33.62 0 00-2.37 7.12 2 2 0 01-.89 1.24l-1.27.74a2.19 2.19 0 00-1.06 1.66v5.19c0 .58.48.78 1.06.44l1.27-.73c.43-.24.79-.15.89.21a9.68 9.68 0 002.39 4.38c.22.25.17.73-.13 1.21l-.88 1.41c-.42.65-.42 1.32 0 1.5l5.36 3.09 1.54-3.09a5.13 5.13 0 00.22-1.49h.14a15.87 15.87 0 005.75-.94c.42-.16.72 0 .72.46v1.28c0 .58.48.78 1.06.44l5.19-3a2.16 2.16 0 001.06-1.66V191a1.88 1.88 0 01.72-1.31 40.28 40.28 0 005.7-5.69c.38-.43.84-.66 1.14-.53l.9.38c.41.18 1.08-.22 1.49-.86l3.67-5.8c.42-.65.42-1.31 0-1.48l-.88-.39c-.31-.12-.35-.57-.13-1.07a33 33 0 002.38-7.13 2 2 0 01.89-1.23l1.27-.74a2.18 2.18 0 001-1.66v-5.19c.07-.62-.42-.82-1-.48zm-9.77 10.61c-.58 5.45-4.73 12-9.86 15.46-6.71 4.61-12.39 2.63-12.39-3.95 0-6.16 5-14 11.17-17.6 6.6-3.81 11.86-1.11 11.08 6.09z" opacity=".2"/><path d="M208.67 196.99l5.37 3.1.23-2.91-2.8-.39-2.8.2z" opacity=".2"/><path d="M196.6 192.3l1.27-.74c.43-.24.79-.15.89.21a9.86 9.86 0 002.38 4.39c.22.23.18.73-.12 1.21l-.9 1.4c-.41.65-.41 1.32 0 1.49l3.68 1.56c.41.17 1.08-.22 1.49-.86l.89-1.41a1.47 1.47 0 011.14-.78 15.5 15.5 0 005.76-1c.42-.14.72.05.72.48v1.27c0 .58.47.78 1 .44l5.2-3a2.18 2.18 0 001-1.66v-1.27a1.88 1.88 0 01.72-1.31 41.34 41.34 0 005.76-5.7c.37-.44.84-.66 1.14-.54l.89.38c.42.17 1.08-.21 1.49-.86l3.68-5.79c.41-.65.41-1.32 0-1.49l-.89-.38c-.31-.13-.35-.57-.12-1.07a33.37 33.37 0 002.38-7.13A2 2 0 01237 169l1.26-.73a2.18 2.18 0 001.06-1.66v-5.2c0-.58-.47-.78-1.06-.44l-1.26.73c-.43.25-.8.15-.89-.21a9.86 9.86 0 00-2.38-4.39c-.23-.23-.19-.73.12-1.21l.89-1.4c.41-.65.41-1.32 0-1.49l-3.68-1.55c-.41-.18-1.07.21-1.49.86l-.88 1.4a1.53 1.53 0 01-1.14.78 15.7 15.7 0 00-5.77.94c-.42.15-.72 0-.72-.47v-1.26c0-.59-.47-.78-1-.45l-5.2 3a2.19 2.19 0 00-1 1.66v1.26a1.86 1.86 0 01-.72 1.31 42 42 0 00-5.76 5.71c-.37.44-.84.67-1.14.54l-.89-.38c-.41-.17-1.08.21-1.49.86l-3.68 5.8c-.41.65-.41 1.31 0 1.49l.89.37c.31.13.35.58.12 1.07a33.78 33.78 0 00-2.37 7.14 2 2 0 01-.89 1.23l-1.27.73a2.19 2.19 0 00-1 1.67v5.19c-.11.53.34.73.94.4zm9.69-9.25c0-6.16 5-14.05 11.16-17.61 6.61-3.81 11.86-1.11 11.09 6.09-.59 5.45-4.74 12-9.86 15.47-6.68 4.6-12.39 2.62-12.39-3.95z" fill="#6957e7"/><path d="M195.55 191.86a.57.57 0 00.23.51l-1-.6-4.24-2.45h-.07l-.14-.12a.66.66 0 01-.13-.42v-5.19a2 2 0 01.53-1.21l5.39 3.09a2 2 0 00-.53 1.22zM220.78 153.07a1 1 0 00-.74.13l-5.19 3a2.12 2.12 0 00-.72.71l-5.36-3.13a2.29 2.29 0 01.71-.68l5.19-3a1 1 0 01.75-.13l.13.08 2.88 1.67zM207.32 166.14l-.08.09c-.36.38-.78.57-1.06.45l-.9-.38-5.36-3.1.88.38c.3.13.78-.1 1.14-.55zM231.11 151.4c-.42-.17-1.08.21-1.49.86l-.9 1.4a2.24 2.24 0 01-.27.34 1.23 1.23 0 01-.83.43l-5.37-3.1a1.48 1.48 0 001.14-.78l.88-1.39c.41-.65 1.08-1 1.49-.86z" fill="#6957e7"/><path fill="#6957e7" d="M229.46 149.88l5.32 3.07-3.67-1.55-5.38-3.1 3.73 1.58zM260.81 179.76l-.92.53c-.32.18-.58.11-.65-.15a7.37 7.37 0 00-1.74-3.21c-.17-.17-.14-.53.08-.89l.65-1c.31-.48.31-1 0-1.09l-2.68-1.14c-.3-.12-.79.16-1.09.63l-.65 1a1.1 1.1 0 01-.84.57 11.4 11.4 0 00-4.21.69c-.31.1-.53 0-.53-.35v-.92c0-.43-.34-.57-.77-.33l-3.8 2.2a1.6 1.6 0 00-.77 1.21v.93a1.37 1.37 0 01-.53 1 30.78 30.78 0 00-4.21 4.18c-.27.32-.61.48-.84.39l-.65-.27c-.3-.13-.78.15-1.08.62l-2.69 4.24c-.3.48-.3 1 0 1.09l.81.47a.86.86 0 01-.07.59 24.06 24.06 0 00-1.74 5.22 1.45 1.45 0 01-.65.9l-.93.54a1.58 1.58 0 00-.77 1.21v3.8c0 .43.34.57.77.33l.93-.54c.31-.18.58-.11.65.15a7.17 7.17 0 001.74 3.21.79.79 0 01-.09.89l-.65 1c-.3.48-.3 1 0 1.09l3.93 2.27 1.12-2.27a3.66 3.66 0 00.17-1.08 11.4 11.4 0 004.21-.69c.31-.11.53 0 .53.35v.87c0 .42.35.57.77.32l3.8-2.19a1.59 1.59 0 00.77-1.22V204a1.35 1.35 0 01.53-.95 31.28 31.28 0 004.21-4.17c.27-.32.61-.49.84-.4l.65.28c.3.13.79-.16 1.09-.63l2.68-4.24c.31-.47.31-1 0-1.09l-.65-.27c-.22-.1-.25-.42-.08-.79a25.31 25.31 0 001.74-5.21 1.44 1.44 0 01.65-.91l.92-.53a1.59 1.59 0 00.77-1.22v-3.8c.04-.41-.3-.56-.73-.31zm-7.14 7.76c-.43 4-3.46 8.75-7.21 11.31-4.91 3.37-9.06 1.92-9.06-2.89 0-4.5 3.65-10.27 8.16-12.87 4.83-2.79 8.68-.82 8.11 4.45z"/><path d="M260.82 179.76l-.93.53c-.32.18-.58.11-.66-.15a7.16 7.16 0 00-1.73-3.21c-.17-.17-.14-.54.09-.89l.64-1c.31-.47.31-1 0-1.09l-2.68-1.13c-.3-.13-.8.15-1.09.62l-.65 1a1.05 1.05 0 01-.83.57 10.86 10.86 0 00-2.77.28c-.47.11-1 .25-1.45.42-.3.1-.52 0-.52-.35v-.92a.42.42 0 00-.24-.44.68.68 0 00-.55.09l-3.8 2.2a1.6 1.6 0 00-.77 1.21v.93a1.37 1.37 0 01-.53 1 30.7 30.7 0 00-4.21 4.17c-.27.33-.62.5-.84.4l-.64-.28c-.31-.12-.79.16-1.09.63l-2.69 4.24c-.3.48-.3 1 0 1.09l.81.47a.82.82 0 01-.08.59 24.87 24.87 0 00-1.73 5.21 1.51 1.51 0 01-.65.91l-.93.54a1.59 1.59 0 00-.77 1.22v3.79c0 .43.34.57.77.33l.93-.54c.31-.18.57-.11.65.16a7.18 7.18 0 001.74 3.2.77.77 0 01-.09.88l-.65 1c-.3.48-.3 1 0 1.1l3.93 2.26 1.12-2.26a3.52 3.52 0 00.16-1.09h.05a11.4 11.4 0 004.21-.69c.31-.11.53 0 .53.34v.9c0 .42.35.57.77.32l3.8-2.19a1.61 1.61 0 00.78-1.22V204a1.37 1.37 0 01.52-1 30.23 30.23 0 004.21-4.18c.27-.31.61-.48.83-.39l.66.28c.29.13.79-.16 1.09-.63l2.68-4.24c.31-.47.31-1 0-1.09l-.64-.28c-.23-.09-.26-.41-.1-.78a23.37 23.37 0 001.74-5.22 1.49 1.49 0 01.66-.9l.93-.53a1.62 1.62 0 00.76-1.22v-3.8c.01-.36-.33-.51-.75-.26zm-7.15 7.76c-.43 4-3.46 8.75-7.21 11.31-4.91 3.37-9.06 1.92-9.06-2.89 0-4.5 3.65-10.27 8.17-12.88 4.82-2.78 8.67-.8 8.1 4.46z" fill="#6957e7"/><path d="M265.21 181.92l-3.84-2.25-.11 2.25a22.41 22.41 0 002 1.68h1zM243.07 208.41l3.93 2.27.17-2.13-2.05-.29-2.05.15z" fill="#6957e7"/><path d="M260.81 179.76l-.92.53c-.32.18-.58.11-.65-.15a7.37 7.37 0 00-1.74-3.21c-.17-.17-.14-.53.08-.89l.65-1c.31-.48.31-1 0-1.09l-2.68-1.14c-.3-.12-.79.16-1.09.63l-.65 1a1.1 1.1 0 01-.84.57 11.4 11.4 0 00-4.21.69c-.31.1-.53 0-.53-.35v-.92c0-.43-.34-.57-.77-.33l-3.8 2.2a1.6 1.6 0 00-.77 1.21v.93a1.37 1.37 0 01-.53 1 30.78 30.78 0 00-4.21 4.18c-.27.32-.61.48-.84.39l-.65-.27c-.3-.13-.78.15-1.08.62l-2.69 4.24c-.3.48-.3 1 0 1.09l.81.47a.86.86 0 01-.07.59 24.06 24.06 0 00-1.74 5.22 1.45 1.45 0 01-.65.9l-.93.54a1.58 1.58 0 00-.77 1.21v3.8c0 .43.34.57.77.33l.93-.54c.31-.18.58-.11.65.15a7.17 7.17 0 001.74 3.21.79.79 0 01-.09.89l-.65 1c-.3.48-.3 1 0 1.09l3.93 2.27 1.12-2.27a3.66 3.66 0 00.17-1.08 11.4 11.4 0 004.21-.69c.31-.11.53 0 .53.35v.87c0 .42.35.57.77.32l3.8-2.19a1.59 1.59 0 00.77-1.22V204a1.35 1.35 0 01.53-.95 31.28 31.28 0 004.21-4.17c.27-.32.61-.49.84-.4l.65.28c.3.13.79-.16 1.09-.63l2.68-4.24c.31-.47.31-1 0-1.09l-.65-.27c-.22-.1-.25-.42-.08-.79a25.31 25.31 0 001.74-5.21 1.44 1.44 0 01.65-.91l.92-.53a1.59 1.59 0 00.77-1.22v-3.8c.04-.41-.3-.56-.73-.31zm-7.14 7.76c-.43 4-3.46 8.75-7.21 11.31-4.91 3.37-9.06 1.92-9.06-2.89 0-4.5 3.65-10.27 8.16-12.87 4.83-2.79 8.68-.82 8.11 4.45z" opacity=".2"/><path d="M260.82 179.76l-.93.53c-.32.18-.58.11-.66-.15a7.16 7.16 0 00-1.73-3.21c-.17-.17-.14-.54.09-.89l.64-1c.31-.47.31-1 0-1.09l-2.68-1.13c-.3-.13-.8.15-1.09.62l-.65 1a1.05 1.05 0 01-.83.57 10.86 10.86 0 00-2.77.28c-.47.11-1 .25-1.45.42-.3.1-.52 0-.52-.35v-.92a.42.42 0 00-.24-.44.68.68 0 00-.55.09l-3.8 2.2a1.6 1.6 0 00-.77 1.21v.93a1.37 1.37 0 01-.53 1 30.7 30.7 0 00-4.21 4.17c-.27.33-.62.5-.84.4l-.64-.28c-.31-.12-.79.16-1.09.63l-2.69 4.24c-.3.48-.3 1 0 1.09l.81.47a.82.82 0 01-.08.59 24.87 24.87 0 00-1.73 5.21 1.51 1.51 0 01-.65.91l-.93.54a1.59 1.59 0 00-.77 1.22v3.79c0 .43.34.57.77.33l.93-.54c.31-.18.57-.11.65.16a7.18 7.18 0 001.74 3.2.77.77 0 01-.09.88l-.65 1c-.3.48-.3 1 0 1.1l3.93 2.26 1.12-2.26a3.52 3.52 0 00.16-1.09h.05a11.4 11.4 0 004.21-.69c.31-.11.53 0 .53.34v.9c0 .42.35.57.77.32l3.8-2.19a1.61 1.61 0 00.78-1.22V204a1.37 1.37 0 01.52-1 30.23 30.23 0 004.21-4.18c.27-.31.61-.48.83-.39l.66.28c.29.13.79-.16 1.09-.63l2.68-4.24c.31-.47.31-1 0-1.09l-.64-.28c-.23-.09-.26-.41-.1-.78a23.37 23.37 0 001.74-5.22 1.49 1.49 0 01.66-.9l.93-.53a1.62 1.62 0 00.76-1.22v-3.8c.01-.36-.33-.51-.75-.26zm-7.15 7.76c-.43 4-3.46 8.75-7.21 11.31-4.91 3.37-9.06 1.92-9.06-2.89 0-4.5 3.65-10.27 8.17-12.88 4.82-2.78 8.67-.8 8.1 4.46z" opacity=".2"/><path d="M243.07 208.41l3.93 2.27.17-2.13-2.05-.29-2.05.15z" opacity=".2"/><path d="M234.24 205l.93-.54c.31-.18.58-.11.65.15a7.17 7.17 0 001.74 3.21c.17.17.13.54-.09.89l-.65 1c-.3.48-.3 1 0 1.09l2.69 1.14c.3.13.79-.16 1.09-.63l.65-1a1.09 1.09 0 01.83-.57 11.4 11.4 0 004.21-.69c.31-.11.53 0 .53.35v.92c0 .43.35.58.77.33l3.8-2.19a1.59 1.59 0 00.77-1.22v-.93a1.35 1.35 0 01.53-.95 31.28 31.28 0 004.21-4.17c.27-.32.62-.49.84-.4l.65.28c.3.12.79-.16 1.09-.63l2.69-4.24c.3-.47.3-1 0-1.09l-.66-.27c-.22-.1-.25-.42-.08-.79a24.61 24.61 0 001.74-5.22 1.44 1.44 0 01.65-.9l.92-.53a1.61 1.61 0 00.78-1.22v-3.8c0-.43-.35-.57-.78-.33l-.92.54c-.32.18-.58.11-.65-.15a7.27 7.27 0 00-1.74-3.21c-.17-.17-.14-.54.09-.89l.65-1c.3-.48.3-1 0-1.09l-2.69-1.14c-.3-.12-.79.16-1.09.63l-.65 1a1.06 1.06 0 01-.83.56 11.65 11.65 0 00-4.22.7c-.31.1-.53 0-.53-.35v-.92c0-.43-.34-.57-.77-.33l-3.8 2.2a1.6 1.6 0 00-.77 1.21v.92a1.37 1.37 0 01-.53 1 31.28 31.28 0 00-4.21 4.17c-.27.33-.61.49-.83.4l-.65-.28c-.3-.12-.79.16-1.09.63l-2.69 4.24c-.3.48-.3 1 0 1.09l.65.28c.22.09.25.42.09.78a24.06 24.06 0 00-1.74 5.22 1.48 1.48 0 01-.65.9l-.93.54a1.6 1.6 0 00-.77 1.21v3.8c0 .37.35.51.77.29zm7.09-6.77c0-4.5 3.65-10.27 8.16-12.87 4.83-2.79 8.68-.82 8.11 4.45-.43 4-3.46 8.75-7.21 11.31-4.91 3.34-9.06 1.88-9.06-2.91z" fill="#6957e7"/><path d="M233.47 204.65a.42.42 0 00.17.38l-.76-.44-3.1-1.79h-.05l-.1-.09a.5.5 0 01-.09-.31v-3.79a1.44 1.44 0 01.38-.89l3.94 2.26a1.5 1.5 0 00-.39.89zM251.92 176.29a.64.64 0 00-.53.09l-3.8 2.2a1.61 1.61 0 00-.53.51l-3.92-2.28a1.76 1.76 0 01.52-.5l3.8-2.2a.68.68 0 01.54-.11l.09.06 2.11 1.21zM242.08 185.84l-.06.07c-.26.28-.57.42-.77.33l-.66-.28-3.92-2.27.64.28c.22.1.57-.07.84-.4zM259.48 175.07c-.31-.13-.79.15-1.09.62l-.65 1a1.33 1.33 0 01-.21.26.88.88 0 01-.6.31L253 175a1.05 1.05 0 00.83-.57l.65-1c.29-.47.79-.75 1.09-.62z" fill="#6957e7"/><path fill="#6957e7" d="M258.28 173.95l3.89 2.25-2.69-1.14-3.94-2.26 2.74 1.15zM207.72 233.14a.86.86 0 01-.27 0l-2.17-.92a.64.64 0 01-.36-.41 1.2 1.2 0 01.2-1l.53-.83a.48.48 0 00.09-.3 6.09 6.09 0 01-1.45-2.64l-.75.43a.82.82 0 01-.82.06.7.7 0 01-.33-.63v-3.1a1.62 1.62 0 01.8-1.29l.75-.43a.81.81 0 00.35-.5 20.38 20.38 0 011.43-4.29.9.9 0 00.06-.18l-.47-.2a.64.64 0 01-.36-.41 1.2 1.2 0 01.2-1l2.17-3.42a1.17 1.17 0 011.32-.65l.53.22a.87.87 0 00.26-.22 25.31 25.31 0 013.45-3.42.76.76 0 00.3-.5v-.74a1.62 1.62 0 01.8-1.29l3.07-1.78a.86.86 0 01.83-.05.7.7 0 01.33.63v.72a9.62 9.62 0 013.49-.56c.06 0 .22-.08.36-.3l.52-.83a1.18 1.18 0 011.32-.64l2.17.92a.63.63 0 01.37.41 1.23 1.23 0 01-.21 1l-.52.82a.49.49 0 00-.1.31 6 6 0 011.46 2.64l.75-.43a.81.81 0 01.83-.06.7.7 0 01.33.63v3.07a1.65 1.65 0 01-.8 1.29l-.75.43a.85.85 0 00-.36.49 19.72 19.72 0 01-1.43 4.3.56.56 0 000 .22l.46.16a.63.63 0 01.37.41 1.23 1.23 0 01-.21 1l-2.26 3.35a1.19 1.19 0 01-1.32.65l-.52-.22a.84.84 0 00-.27.21 24.21 24.21 0 01-3.45 3.42.78.78 0 00-.29.5v.75a1.65 1.65 0 01-.8 1.29l-3.04 1.77a.84.84 0 01-.83.06.7.7 0 01-.33-.63v-.67a9.65 9.65 0 01-3.49.56.62.62 0 00-.36.29l-.53.83a1.33 1.33 0 01-1.05.7zm-3.37-6.88a.7.7 0 01.25.05.64.64 0 01.36.42 5.42 5.42 0 001.31 2.44.93.93 0 010 1.15l-.53.83a.56.56 0 00-.12.4l2.13.88c.07 0 .27-.09.44-.37l.53-.83a1.14 1.14 0 011-.62 8.84 8.84 0 003.27-.55.68.68 0 01.64.07.65.65 0 01.26.55v.75h.09l3.07-1.78a.91.91 0 00.45-.67v-.75a1.46 1.46 0 01.55-1.05 24.47 24.47 0 003.36-3.32 1 1 0 011.08-.42l.53.22c.06 0 .27-.09.44-.37l2.17-3.42a.6.6 0 00.13-.4l-.49-.19a.57.57 0 01-.32-.34 1 1 0 01.06-.77 19.58 19.58 0 001.39-4.14 1.52 1.52 0 01.69-1l.75-.43a.91.91 0 00.45-.67v-3.07h-.09l-.75.43a.79.79 0 01-.69.09.63.63 0 01-.36-.42 5.44 5.44 0 00-1.32-2.44 1 1 0 010-1.16l.52-.82a.6.6 0 00.13-.4l-2.14-.89a.82.82 0 00-.44.38l-.52.82a1.22 1.22 0 01-1 .63 9.08 9.08 0 00-3.28.54.66.66 0 01-.63-.07.64.64 0 01-.26-.55v-.74h-.09l-3.07 1.77a1 1 0 00-.45.68v.74a1.44 1.44 0 01-.56 1 24.49 24.49 0 00-3.29 3.45 1 1 0 01-1.09.42l-.53-.22a.79.79 0 00-.44.37l-2.17 3.42a.56.56 0 00-.12.4l.48.19a.58.58 0 01.33.34 1 1 0 01-.07.77 19.35 19.35 0 00-1.38 4.14 1.52 1.52 0 01-.7 1l-.75.44a.93.93 0 00-.44.67v3.07h.09l.75-.44a1 1 0 01.39-.21zm8-.42a3.8 3.8 0 01-1.76-.41 4 4 0 01-1.9-3.76c0-3.75 3-8.56 6.78-10.72 2.11-1.22 4.11-1.41 5.49-.51s1.81 2.4 1.59 4.46a14.48 14.48 0 01-6 9.39 7.74 7.74 0 01-4.18 1.55zm6.65-15.25a6.39 6.39 0 00-3.12 1c-3.54 2-6.42 6.57-6.42 10.1a3.3 3.3 0 001.52 3.13c1.29.68 3.25.27 5.25-1.09a13.76 13.76 0 005.67-8.89c.19-1.78-.26-3.12-1.27-3.78a2.93 2.93 0 00-1.63-.47zM173.19 292.55a5.68 5.68 0 01-2.83-.77 5.6 5.6 0 01-2.82-4.89 10.9 10.9 0 015.44-9.41l114.41-65.85a5.65 5.65 0 018.47 4.89 10.87 10.87 0 01-5.45 9.41L176 291.79a5.64 5.64 0 01-2.81.76zm117-80.61a4.6 4.6 0 00-2.29.61l-114.39 65.86a9.81 9.81 0 00-4.9 8.48 4.58 4.58 0 006.86 4L289.88 225a9.81 9.81 0 004.91-8.49 4.6 4.6 0 00-4.58-4.58z"/><path d="M245.11 238.94v10.18l-69.36 39.93a3.52 3.52 0 01-5.27-3.05 7.08 7.08 0 013.56-6.15zM206.84 252.06c-.65-.29-1-1.07-1-2.32v-5l1.26-.72V249c0 1.89.82 2.35 2.47 1.4a5 5 0 001.84-1.76 4.75 4.75 0 00.64-2.5v-4.95l1.22-.7v5a6.36 6.36 0 01-1 3.46 7.6 7.6 0 01-2.73 2.57c-1.13.64-2.05.83-2.7.54zM222 236.25c.65.17 1 .73 1 1.68a4.87 4.87 0 01-1 2.82 8.3 8.3 0 01-2.69 2.36l-2.17 1.26V247l-1.26.72V239l3.43-2a3.91 3.91 0 012.69-.75zm-.91 4.23a3 3 0 00.63-1.82c0-.64-.21-1-.63-1.1a2.78 2.78 0 00-1.82.54l-2.13 1.23v3.94l2.13-1.23a5.59 5.59 0 001.8-1.56zM224.8 233.81l3.7-2.14a5.91 5.91 0 012.48-.88 2 2 0 011.67.59 2.77 2.77 0 01.6 1.94 6.47 6.47 0 01-.6 2.64 9.77 9.77 0 01-1.67 2.52 10.6 10.6 0 01-2.48 2l-3.7 2.13zm3.63 5.6a7.81 7.81 0 001.87-1.5 6.92 6.92 0 001.25-1.88 4.8 4.8 0 00.44-2 2.1 2.1 0 00-.44-1.47 1.43 1.43 0 00-1.25-.44 4.35 4.35 0 00-1.87.66l-2.37 1.37v6.61zM240.64 231.25L236 234l-1 2.75-1.29.75 4-11.09 1.24-.71 4 6.48-1.31.76zm-.44-.75l-1.89-3.21-1.9 5.4zM245.53 222.93l-3 1.74v-1.1l7.27-4.19v1.09l-3 1.74v7.69l-1.25.72zM257.53 222.6v1.09l-6.37 3.69v-8.79l6.2-3.58v1.09l-5 2.86v2.69l4.41-2.54v1.07l-4.41 2.54v2.84z" fill="#6957e7"/><g><path fill="#6957e7" d="M331.24 85.63l41.38-24.19 1.47.89-41.61 24.07-1.06-.68"/><path fill="#6957e7" d="M318.49 89.56v50.01l.17 1.37 6.2-1.9 49.23-27.27V62.33L332.48 86.4l-1.55-3.93-12.44 7.09"/><path opacity=".2" d="M318.49 89.56v50.01l.17 1.37 6.2-1.9 49.23-27.27V62.33L332.48 86.4l-1.55-3.93-12.44 7.09"/><path d="M377.35 56.89a.51.51 0 00-.78-.44l-40.83 23.76a2.17 2.17 0 00-1.05 1.85v36.06a.66.66 0 00.82.63 1.91 1.91 0 01-1.64 0 1.45 1.45 0 01-.73-1.27v-36a2.23 2.23 0 01.43-1.3 2.17 2.17 0 01.62-.55L375 55.8a1.34 1.34 0 011.36 0c.85.48.99.76.99 1.09z" fill="#e0e0e0"/><path d="M377.35 56.89a.51.51 0 00-.78-.44l-40.83 23.76a2 2 0 00-.82.9l-1.35-1a2.17 2.17 0 01.62-.55L375 55.8a1.34 1.34 0 011.36 0c.85.48.99.76.99 1.09z" fill="#fafafa"/><path d="M376.05 95.17l-40.39 23.51a.65.65 0 01-1-.57v-36a2.14 2.14 0 011.06-1.84l40.84-23.77a.51.51 0 01.77.44v36a2.63 2.63 0 01-1.28 2.23z" fill="#ebebeb"/><path d="M329.7 100.29l53.86-31.17-9.47 42.65-53.85 31.17a2.08 2.08 0 01-1.42.17s.05 0 .6-1.56 10.28-41.26 10.28-41.26z" fill="#6957e7"/><path fill="#6957e7" d="M382.24 68.47l1.32.65-53.86 31.17-1.32-.65 53.86-31.17zM317.43 88.89l12.37-7.19 1.13.77-12.44 7.09-1.06-.67"/><path fill="#fff" opacity=".2" d="M332 85.19l40.62-23.75 1.47.89-41.61 24.07-.48-1.21M382.24 68.47l1.32.65-53.86 31.17-1.32-.65 53.86-31.17zM317.43 88.89l12.37-7.19 1.13.77-12.44 7.09-1.06-.67"/><path d="M317.43 88.89v52a3.07 3.07 0 00.75 1.93 1.06 1.06 0 001.78-.39l9.74-42.1-1.32-.65-9 40.16a.42.42 0 01-.5.26.52.52 0 01-.35-.49v-50z" fill="#6957e7"/><path d="M317.43 88.89v52a3.07 3.07 0 00.75 1.93 1.06 1.06 0 001.78-.39l9.74-42.1-1.32-.65-9 40.16a.42.42 0 01-.5.26.52.52 0 01-.35-.49v-50z" opacity=".4"/></g><g><path d="M141.89 248.2l-3.46.77v45.83a2.88 2.88 0 01-1.44 2.5L70.32 336v4.67a3.92 3.92 0 01-3.55-.16 2.89 2.89 0 01-1.41-2.51v-50.63a2.87 2.87 0 011.45-2.5l69.74-40.47.12-.06a3.92 3.92 0 015.22 3.86z" fill="#6957e7"/><path d="M141.89 248.2l-3.46.77v45.83a2.88 2.88 0 01-1.44 2.5L70.32 336v4.67a3.92 3.92 0 01-3.55-.16 2.89 2.89 0 01-1.41-2.51v-50.63a2.87 2.87 0 011.45-2.5l69.74-40.47.12-.06a3.92 3.92 0 015.22 3.86z" opacity=".2"/><path d="M141.89 248.2l-3.46.77v1.84L70.51 289l-4.92-2.76a3 3 0 011.22-1.37l69.74-40.47.12-.06a3.92 3.92 0 015.22 3.86z" fill="#6957e7"/><path d="M141.89 248.2l-3.46.77v1.84L70.51 289l-4.92-2.76a3 3 0 011.22-1.37l69.74-40.47.12-.06a3.92 3.92 0 015.22 3.86z" fill="#fff" opacity=".2"/><path d="M70.27 287.59L140 247.11a1.26 1.26 0 011.88 1.09v49.31a2.9 2.9 0 01-1.44 2.51l-69.73 40.47a1.25 1.25 0 01-1.88-1.09v-49.31a2.9 2.9 0 011.44-2.5z" fill="#6957e7"/><path d="M121.18 270.78l-2.32 3.66c-3.26-1.92-8.1-1.54-13.5 1.58-8.47 4.89-15.56 14.9-17.35 23.86-.14.72.36 1 1 .66l2.43-1.41a2.21 2.21 0 001-1.31 29.22 29.22 0 0112.92-17.39c4.19-2.41 7.92-2.64 10.37-1l-3 4.76c-.62 1-.24 1.8.62 1.39l8.08-3.86a2.87 2.87 0 001.53-2.26v-8.96c-.02-.92-1.13-.74-1.78.28zM105.36 307.17c-4.19 2.42-7.92 2.64-10.37 1.05l3-4.77c.61-1 .24-1.8-.62-1.39l-8.08 3.86a2.87 2.87 0 00-1.53 2.26v8.93c0 .91 1.11.73 1.76-.29l2.31-3.65c3.27 1.92 8.1 1.54 13.51-1.58 8.47-4.89 15.56-14.91 17.34-23.87.15-.71-.35-1-1-.65l-2.43 1.4a2.24 2.24 0 00-1 1.31 29.26 29.26 0 01-12.89 17.39z" fill="#fff"/></g><g><path fill="#6957e7" d="M323.81 183.81l3.96 5.32 4.59 2.51-1.16-12.07-7.39 4.24z"/><path opacity=".2" d="M323.81 183.81l3.96 5.32 4.59 2.51-1.16-12.07-7.39 4.24z"/><path fill="#6957e7" d="M328.41 186.32l3.95 5.32 3.44-9.56-7.39 4.24z"/><path d="M397.81 121.35l-3.46.77v20.13a2.9 2.9 0 01-1.44 2.5l-70.27 40.77v4.67a4 4 0 01-3.55-.15 2.91 2.91 0 01-1.41-2.52v-24.93a2.85 2.85 0 01.23-1.13 2.9 2.9 0 011.22-1.37l73.34-42.55a.61.61 0 01.12-.05 3.92 3.92 0 015.22 3.87z" fill="#6957e7"/><path d="M397.81 121.35l-3.46.77v20.13a2.9 2.9 0 01-1.44 2.5l-70.27 40.77v4.67a4 4 0 01-3.55-.15 2.91 2.91 0 01-1.41-2.52v-24.93a2.85 2.85 0 01.23-1.13 2.9 2.9 0 011.22-1.37l73.34-42.55a.61.61 0 01.12-.05 3.92 3.92 0 015.22 3.87z" opacity=".2"/><path d="M397.81 121.35l-3.46.77V124l-71.52 40.27-4.92-2.76a2.9 2.9 0 011.22-1.37l73.34-42.55a.61.61 0 01.12-.05 3.92 3.92 0 015.22 3.87z" fill="#6957e7"/><path d="M397.81 121.35l-3.46.77V124l-71.52 40.27-4.92-2.76a2.9 2.9 0 011.22-1.37l73.34-42.55a.61.61 0 01.12-.05 3.92 3.92 0 015.22 3.87z" fill="#fff" opacity=".2"/><path d="M322.59 162.8l73.34-42.55a1.26 1.26 0 011.88 1.09V145a2.9 2.9 0 01-1.44 2.5L323 190a1.26 1.26 0 01-1.89-1.09v-23.6a2.89 2.89 0 011.48-2.51z" fill="#6957e7"/><path d="M326 167.2a.77.77 0 01-.39-1.44l66.89-38.53a.77.77 0 011 .28.78.78 0 01-.28 1l-66.8 38.59a.75.75 0 01-.42.1zM326 172.52a.77.77 0 01-.39-1.44l66.89-38.54a.77.77 0 011 .29.78.78 0 01-.28 1l-66.89 38.53a.76.76 0 01-.33.16zM326 177.83a.77.77 0 01-.39-1.44l57.66-33.22a.77.77 0 01.77 1.34l-57.66 33.22a.75.75 0 01-.38.1zM326 183.15a.77.77 0 01-.39-1.44l66.89-38.54a.77.77 0 011 .29.78.78 0 01-.28 1L326.42 183a.76.76 0 01-.42.15z" fill="#fff"/><path d="M89.79 248.47l1.31-4.15-5.33 3 2.5 4.18a.38.38 0 00.11.11l3.23 1.79v-6.26z" fill="#6957e7"/><path d="M89.79 248.47l1.31-4.15-5.33 3 2.5 4.18a.38.38 0 00.11.11l3.23 1.79v-6.26z" opacity=".2"/><path d="M103.58 218.73l-4.32 1.65v16a4 4 0 01-2 3.51l-14.42 8.28v5.07c-1.53.65-3.37-.49-3.37-.49-2.23-1.23-2.09-2.76-2.09-2.76v-20.88a3.28 3.28 0 01.37-1.52A3.33 3.33 0 0179 226.2l18.87-10.84a3.33 3.33 0 012.65-.19c1.48.46 3.06 1.72 3.06 3.56z" fill="#6957e7"/><path d="M103.58 218.73l-4.32 1.65v16a4 4 0 01-2 3.51l-14.42 8.28v5.07c-1.53.65-3.37-.49-3.37-.49-2.23-1.23-2.09-2.76-2.09-2.76v-20.88a3.28 3.28 0 01.37-1.52A3.33 3.33 0 0179 226.2l18.87-10.84a3.33 3.33 0 012.65-.19c1.48.46 3.06 1.72 3.06 3.56z" opacity=".2"/><path d="M103.58 218.73l-4.32 1.65v1.85l-16.83 8.26-4.71-2.9A3.33 3.33 0 0179 226.2l18.87-10.84a3.33 3.33 0 012.65-.19c1.48.46 3.06 1.72 3.06 3.56z" fill="#6957e7"/><path d="M103.58 218.73l-4.32 1.65v1.85l-16.83 8.26-4.71-2.9A3.33 3.33 0 0179 226.2l18.87-10.84a3.33 3.33 0 012.65-.19c1.48.46 3.06 1.72 3.06 3.56z" fill="#fff" opacity=".2"/><path d="M103.58 218.73V239a4.07 4.07 0 01-2 3.52l-18.77 10.73a.77.77 0 01-1.15-.66V231.7a3.37 3.37 0 011.69-2.91L102.23 218a.9.9 0 011.35.73z" fill="#6957e7"/><path d="M89 249.12l2.5 4.18a.31.31 0 00.56-.07l2.27-7.14z" fill="#6957e7"/><path d="M96.9 233c0 .95.78 1.28 1.73.73a3.58 3.58 0 001.73-2.73c0-1-.77-1.29-1.73-.73A3.59 3.59 0 0096.9 233zM90.68 236.59c0 .95.78 1.28 1.73.73a3.58 3.58 0 001.73-2.73c0-1-.77-1.29-1.73-.73a3.59 3.59 0 00-1.73 2.73zM84.46 240.18c0 .95.78 1.28 1.73.73a3.58 3.58 0 001.73-2.73c0-1-.77-1.28-1.73-.73a3.59 3.59 0 00-1.73 2.73z" fill="#fff"/></g><g><path d="M389.08 391.16l-6.41 3.69a1 1 0 01-1 0l-37.27-21.52a.3.3 0 010-.52l6.41-3.68a1 1 0 011 0l37.28 21.51a.3.3 0 01-.01.52z" fill="#e6e6e6"/><path d="M389.22 353.51v30.92a3.15 3.15 0 01-1.4 2.51 16.8 16.8 0 01-3.38 1.79 9.57 9.57 0 01-3.46.7l1.15-31.78 1.55-2.46z" fill="#6957e7"/><path d="M382.13 357.65v30.54a1.22 1.22 0 01-1.33 1.23 4.56 4.56 0 01-1.63-.62l-32.24-18.61a6 6 0 01-2.68-5v-29.46l6.74 1.84L378.22 354z" fill="#6957e7"/><path d="M382.13 357.65v30.54a1.22 1.22 0 01-1.33 1.23 4.56 4.56 0 01-1.63-.62l-32.24-18.61a6 6 0 01-2.68-5v-29.46l6.74 1.84L378.22 354z" opacity=".4"/><path d="M344.25 347.6s-.21 2.29 3 4.09c3 1.68 28.77 16.51 32.3 18.54a1.66 1.66 0 001.5.11c.55-.25 1.1-.88 1.1-2.41v-11l-36.72-21.44-1.16.24z" fill="#6957e7"/><path d="M344.25 347.6s-.21 2.29 3 4.09c3 1.68 28.77 16.51 32.3 18.54a1.66 1.66 0 001.5.11c.55-.25 1.1-.88 1.1-2.41v-11l-36.72-21.44-1.16.24z" opacity=".2"/><path d="M389.08 353.83l-6.41 3.69a1 1 0 01-1 0L344.4 336a.3.3 0 010-.52l6.41-3.69a1 1 0 011 0l37.28 21.52a.3.3 0 01-.01.52z" fill="#6957e7"/><path d="M389.08 353.83l-6.41 3.69a1 1 0 01-1 0L344.4 336a.3.3 0 010-.52l6.41-3.69a1 1 0 011 0l37.28 21.52a.3.3 0 01-.01.52z" fill="#fff" opacity=".1"/><path d="M359 357.13v2.28a1.46 1.46 0 00.74 1.27l6.24 3.58a.52.52 0 00.78-.45v-2.28a1.45 1.45 0 00-.74-1.27l-6.23-3.58a.53.53 0 00-.79.45z" fill="#37474f"/><path d="M360.87 332.84a3.48 3.48 0 00-1.76 1l1.76 2.81v3.93l1.16.67v-5l10.11 5.86.72 7.34 1.76-1v-7.74z" fill="#455a64"/><path fill="#263238" d="M362.03 336.05l-1.76-.32v6.52l1.76-1v-5.2z"/><path d="M359.11 333.84v7.74a2.77 2.77 0 001.16.67v-6.52l11.44 6.56v6.51a1.94 1.94 0 001.15.67v-7.74z" fill="#37474f"/></g><g><path d="M345 391.69s.36.08.43 1.18a35.38 35.38 0 010 5.05c-.15.77-1.83 1.9-3.9 1.67s-3.5-1.83-4.53-3.4-5.53-7-6.36-8.28-2.09-4.76-.5-6.19c1.35-1.2 6.37 1.53 7.71 3s7.15 6.97 7.15 6.97zM323.62 407.18a6.44 6.44 0 011 2.52 32.63 32.63 0 010 6.37 3.34 3.34 0 01-2.94 1.47c-1.05.06-2.53.11-3.55.15a5 5 0 00-2.18.56 59.93 59.93 0 01-5.66 2.56 14 14 0 01-8.13.74 10.44 10.44 0 01-5.63-3.11 2.05 2.05 0 01-.14-2.12c.34-.44 5.44-2.54 8-3.83s10.18-4.35 10.84-4.87 8.39-.44 8.39-.44z" fill="#263238"/><path d="M308.63 219.78a4.19 4.19 0 00.48-2v-5.33c.22-3.44 1.25-4.8 1.25-4.8 4.21-5.49 19.6-4.26 20.69-1.17s3.24 20-1.51 23c.49 2.64 1.86 9.07 1.86 9.07-3.85 3.49-11.88 2.37-11.88 2.37.24-1.17-.84-5.87-1.42-8.27-3.3.4-6.15.35-7.08-.34a1.14 1.14 0 01-.19-.19c-.71-1-1.19-3.3-1.47-7.95-.87.11-2.14-.2-2.31-.54s.79-2.36 1.58-3.85z" fill="#ffa8a7"/><path d="M318.35 269.8L304.87 233a2.75 2.75 0 00-1.33-1.49l.3-.4-1.79.08a2.8 2.8 0 00-1.17.36l-20.51 11.85a2.76 2.76 0 00-1.22 3.35l13.48 36.81a2.76 2.76 0 002.31 1.8l1.56.09-.25-.27a2.59 2.59 0 00.38-.17l20.51-11.84a2.78 2.78 0 001.21-3.37z" fill="#374d56"/><path d="M280.61 246.62l13.59 37.11a2.62 2.62 0 003.77 1.36l20.78-12a2.61 2.61 0 001.15-3.16l-13.6-37.11a2.61 2.61 0 00-3.76-1.37l-20.79 12a2.62 2.62 0 00-1.14 3.17z" fill="#556f77"/><path d="M282.48 246.37l12.7 34.68a1.2 1.2 0 001.72.62L317.09 270a1.2 1.2 0 00.52-1.45l-12.71-34.66a1.19 1.19 0 00-1.71-.62L283 244.92a1.2 1.2 0 00-.52 1.45z" fill="#fff"/><path d="M297.83 261.41h-.05l-.46-.26a.32.32 0 01-.1-.1.25.25 0 01-.05-.18v-.14a.35.35 0 000-.06 2.76 2.76 0 01-.49-.57l-.1.06h-.14a.47.47 0 01-.11-.13l-.27-.6v-.22h.1v-.09a4.27 4.27 0 01-.13-.77l-.1-.05a.47.47 0 01-.1-.1.26.26 0 01-.05-.18l.07-.58c0-.1.08-.13.17-.08l.11.07a1.53 1.53 0 01.3-.53.06.06 0 000-.08l-.06-.15a.19.19 0 010-.22l.38-.22a.15.15 0 01.14 0 .36.36 0 01.11.14l.06.13a1.34 1.34 0 01.56 0v-.14c0-.09.09-.12.18-.07l.46.27a.41.41 0 01.1.09.26.26 0 01.05.18v.14a.35.35 0 000 .06 3.05 3.05 0 01.49.57l.09-.05a.12.12 0 01.14 0 .33.33 0 01.12.14l.27.59v.22l-.09.06v.08a3.56 3.56 0 01.14.78l.09.05a.28.28 0 01.1.09.27.27 0 010 .19l-.07.58c0 .09-.09.12-.17.07l-.12-.07a1.48 1.48 0 01-.3.52.09.09 0 000 .09l.07.14v.22l-.37.22a.15.15 0 01-.14 0 .26.26 0 01-.11-.14l-.06-.13a1.33 1.33 0 01-.56 0v.14c.01 0-.03.03-.1.02zm-1.19-1.48a.19.19 0 01.1.1 2.91 2.91 0 00.45.52.34.34 0 01.1.23V260.99l.45.26v-.2a.09.09 0 01.26-.05 1.15 1.15 0 00.52 0 .15.15 0 01.12 0 .27.27 0 01.09.12l.07.14.38-.22v-.12l-.07-.14a.21.21 0 010-.19 1.34 1.34 0 00.29-.51.09.09 0 01.15 0l.12.06v-.05l.07-.58v-.07l-.1-.06-.09-.08a.3.3 0 01-.05-.15 4.07 4.07 0 00-.13-.75.14.14 0 010-.16h.1a.09.09 0 000-.11l-.27-.6-.09.06a.12.12 0 01-.11 0 .22.22 0 01-.1-.09 3 3 0 00-.45-.53.27.27 0 01-.1-.22v-.14a.15.15 0 000-.08l-.45-.26-.05.06v.14a.09.09 0 01-.12.08 1.16 1.16 0 00-.52 0 .12.12 0 01-.12 0 .52.52 0 01-.1-.11l-.06-.15-.38.22a.09.09 0 000 .11l.07.15a.17.17 0 010 .18 1.58 1.58 0 00-.29.51c0 .06-.08.08-.15 0l-.11-.07v.06l-.07.55a.13.13 0 000 .08h.1l.09.08a.3.3 0 010 .15 3.28 3.28 0 00.13.75.14.14 0 010 .16h-.09v.12l.28.6.09-.05a.08.08 0 01.04.04zm1.35.24a.91.91 0 01-.34-.15 1.8 1.8 0 01-.66-.81 1.44 1.44 0 01.23-1.81.83.83 0 01.91.12 2 2 0 01.67.93 1.48 1.48 0 01-.21 1.59.68.68 0 01-.59.13zm-.2-2.7a.61.61 0 00-.46.06 1.38 1.38 0 00-.22 1.71 1.6 1.6 0 00.54.67.66.66 0 00.82 0 1.39 1.39 0 00.2-1.5 1.69 1.69 0 00-.56-.79.93.93 0 00-.32-.15zM300 257l.11-.07a.1.1 0 01.13.06 4 4 0 00.59.69.21.21 0 01.06.17v.17a.23.23 0 00.1.22l.57.33c.06 0 .12 0 .13-.08v-.18c0-.06.05-.09.1-.07a1.52 1.52 0 00.67 0s.09 0 .12.09l.08.18c0 .09.11.13.17.1l.46-.28c.06 0 .07-.12 0-.2l-.08-.18a.17.17 0 010-.17 1.83 1.83 0 00.37-.64.07.07 0 01.11 0l.14.08c.06 0 .12 0 .13-.08l.09-.72a.22.22 0 00-.1-.21l-.13-.08a.21.21 0 01-.09-.15 4 4 0 00-.16-.95.12.12 0 010-.15l.11-.07c.05 0 .06-.12 0-.2l-.34-.74c0-.09-.11-.13-.16-.1l-.12.07s-.09 0-.12-.06a3.68 3.68 0 00-.59-.69.22.22 0 01-.07-.17v-.17a.26.26 0 00-.1-.22l-.57-.33c-.06 0-.12 0-.13.08v.17c0 .06-.05.09-.1.08a1.53 1.53 0 00-.67 0 .13.13 0 01-.12-.09l-.09-.18c0-.09-.11-.13-.16-.1l-.47.28c-.05 0-.06.12 0 .2l.08.18a.17.17 0 010 .17 2 2 0 00-.36.64.07.07 0 01-.11 0l-.14-.08c-.06 0-.12 0-.13.08l-.1.72a.24.24 0 00.1.21l.14.08a.16.16 0 01.08.15 4.6 4.6 0 00.16 1v.15l-.11.07c-.06 0-.07.12 0 .2l.34.74c.01.05.08.05.18.05zm.64-1c-.4-.88-.28-1.86.27-2.18s1.44.19 1.81 1.19a1.79 1.79 0 01-.25 1.92c-.61.42-1.47-.03-1.88-.93zM292.27 253l.16-.09c.05 0 .12 0 .17.07a5.08 5.08 0 00.8 1 .3.3 0 01.09.24v.23a.34.34 0 00.13.29l.78.45c.09.06.17 0 .18-.1v-.24a.11.11 0 01.13-.11 1.92 1.92 0 00.92.05c.06 0 .13 0 .17.13l.11.24c0 .12.15.17.22.13l.64-.37a.23.23 0 000-.28l-.11-.25a.21.21 0 010-.23 2.63 2.63 0 00.49-.87c0-.07.09-.1.15-.06l.19.11c.09.05.17 0 .19-.11l.12-1a.29.29 0 00-.13-.29l-.19-.11a.28.28 0 01-.12-.21 5.88 5.88 0 00-.21-1.29.18.18 0 010-.21l.16-.09c.07 0 .08-.17 0-.28l-.46-1c-.05-.12-.15-.17-.22-.13l-.16.09s-.12 0-.17-.08a4.73 4.73 0 00-.8-1 .28.28 0 01-.09-.23v-.24a.31.31 0 00-.13-.29l-.78-.45c-.09-.05-.17 0-.18.11v.24c0 .08-.07.12-.13.1a2.21 2.21 0 00-.92 0 .18.18 0 01-.17-.12l-.11-.25c-.05-.11-.15-.17-.22-.13l-.64.38a.23.23 0 000 .28l.11.25a.19.19 0 010 .22 2.68 2.68 0 00-.49.88.1.1 0 01-.15.06l-.19-.11c-.09 0-.17 0-.18.11l-.13 1a.34.34 0 00.13.29l.19.11a.32.32 0 01.12.22 5.45 5.45 0 00.22 1.29.21.21 0 01-.05.21l-.16.09c-.07 0-.08.16 0 .28l.46 1c.09.07.19.07.26.07zm.87-1.41c-.55-1.2-.38-2.53.38-3s2 .27 2.47 1.64a2.41 2.41 0 01-.34 2.61c-.77.65-1.93.03-2.51-1.25zM297.09 271.58a1.67 1.67 0 01-.56-.27 2.84 2.84 0 01-.93-1.06c-.34-.76-.3-1.38.12-1.62l14.07-8.18c.22-.13.59 0 1 .23a2.68 2.68 0 01.92 1.07c.35.75.3 1.37-.11 1.61l-14.08 8.18a.53.53 0 01-.43.04zm13.22-11a.48.48 0 00-.34 0l-14.08 8.19c-.37.21-.41.77-.1 1.45a2.2 2.2 0 00.75.86c.32.22.62.29.8.19l14.08-8.18c.37-.22.41-.78.1-1.46a2.27 2.27 0 00-.75-.86 1.37 1.37 0 00-.46-.15z" fill="#6957e7"/><path d="M304.86 264.05l.9 2-8.54 5c-.28.17-.94-.28-1.18-.81a1.34 1.34 0 01-.15-.65.47.47 0 01.22-.4zM298.59 265.66a1.19 1.19 0 01-.38-.49l-.44-1 .15-.09.44 1c.17.36.36.49.56.37a.32.32 0 00.16-.27.92.92 0 00-.11-.46l-.44-1 .15-.09.45 1a1.26 1.26 0 01.13.64.51.51 0 01-.24.39.42.42 0 01-.43 0zM299.82 263.19a.67.67 0 01.32.37.81.81 0 01.08.51.51.51 0 01-.26.35l-.26.16.23.52-.15.09-.78-1.72.42-.24a.42.42 0 01.4-.04zm.22.79a.5.5 0 00-.05-.33.51.51 0 00-.21-.24.33.33 0 00-.27 0l-.26.16.35.76.26-.15a.34.34 0 00.14-.18zM300.1 262.83l.45-.26a.51.51 0 01.36-.07.67.67 0 01.34.18 1.24 1.24 0 01.28.4 1.55 1.55 0 01.13.49.93.93 0 01-.07.42.66.66 0 01-.26.29l-.45.26zm1.13 1.24a.46.46 0 00.19-.22.62.62 0 00.05-.31 1.08 1.08 0 00-.1-.37.88.88 0 00-.21-.3.43.43 0 00-.25-.14.38.38 0 00-.27 0l-.29.17.59 1.29zM302.63 263l-.57.33.07.5-.16.09-.29-2 .16-.08 1.27 1.42-.17.09zm-.14-.17l-.62-.7.15 1zM302.74 261.55l-.37.22-.09-.21.89-.52.1.21-.37.21.68 1.5-.15.09zM304.8 262l.1.21-.78.46-.78-1.71.76-.45.1.21-.61.36.24.52.54-.31.09.21-.54.31.25.56z" fill="#6957e7"/><path d="M311.05 232.23c.93.69 3.78.74 7.08.34a5.6 5.6 0 001.77-1.77c-.28.12-5.53 2.39-8.85 1.43z" fill="#f28f8f"/><path d="M323.62 402.23v4.95a4.93 4.93 0 01-5.78 2.46 4.11 4.11 0 01-2.57-2s-.16-3.95-.3-5.39M345 388.71v3a3.58 3.58 0 01-3.53 1.48 4.39 4.39 0 01-3.34-1.68l-.07-3.23M352.25 259.47l-11.64 3.09.93 3.8-1.35-.78-4.69 7.56 8.84 4.69s3.6 2.41 6.06 2.36a6.22 6.22 0 005.6-5.59c.5-3.79-3.75-15.13-3.75-15.13z" fill="#ffa8a7"/><path d="M341.81 266.52s1.87 6 2.89 7.46a39 39 0 01-4.27-7.93" fill="#f28f8f"/><path d="M306.83 297s.48 49.75.89 55.72 7.21 50.73 7.21 50.73c5.45 2.56 9.05 0 9.05 0a23.69 23.69 0 010-4.23c.2-2.57 2.16-25.61 2-33.84a39.19 39.19 0 00-2.68-13.79l2.7-39.8 1.37-.62s.29 5.62.66 12.21v.05c.45 7.68 1 16.66 1.38 19.72.69 5.69 4.88 26.47 6.11 31.34s2.48 14.07 2.48 14.07c2.41 2.39 7.23.54 7.23.54s0-6.1.32-9.87 1.82-20.6 1.24-25-3-12.27-3.22-13.85 1.14-36.84 1.14-36.84a23.28 23.28 0 00.3-11.11z" fill="#37474f"/><path d="M339 238.13a19.52 19.52 0 019.28 8.51 114.9 114.9 0 016 14.31s-5.91 5.57-13.55 5.88z" fill="#6957e7"/><path d="M339 238.13a19.52 19.52 0 019.28 8.51 114.9 114.9 0 016 14.31s-5.91 5.57-13.55 5.88z" opacity=".2"/><path d="M345 292.34v.05s-5.71 6-16.5 7.61c-9.86 1.45-20.23-2.18-21.95-2.82.3-6.45 1.08-20.23 1.47-27.28.15-2.65.25-4.35.25-4.35l-1.94 1.88v-2.29s-1.68-21.71 13.43-25a21.7 21.7 0 0011.5-2.63 21.92 21.92 0 012.51-.52 7.83 7.83 0 017.2 2.77 18.28 18.28 0 013.32 7.54c1.45 6.49-4.81 25.49-5.21 27.42s5.43 14.66 5.92 17.62z" fill="#6957e7"/><path d="M304.91 268.43s-7.61 9.65-10.78 11.18-24.94-14.45-27.78-15.69-9.71-4.13-10.73-5.59a6.26 6.26 0 011.2-5.59s.08-2.62 1.73-3.06c0 0-4.85-6.41-4.23-7.31s2.17-.36 3.61 1.11 7.46 9 8.15 9.26 1.16-2.45 2.29-4 2.87-1.55 2.82-.29-1.07 4.82-1 6.42 1.44 2.77 2.6 3.65 17.79 9.23 17.79 9.23l6.49-7.43" fill="#ffa8a7"/><path d="M316.62 241.22s-4.55-.38-10 4.85-12 14.44-12 14.44a26.18 26.18 0 0010.32 10.14S318 257.4 320.51 251s-3.89-9.78-3.89-9.78z" fill="#6957e7"/><path d="M316.62 241.22s-4.55-.38-10 4.85-12 14.44-12 14.44a26.18 26.18 0 0010.32 10.14S318 257.4 320.51 251s-3.89-9.78-3.89-9.78z" opacity=".2"/><path d="M327.38 311.17s.29 5.62.66 12.21v.05l.56-11.37a23.39 23.39 0 005.44-5.28 22.5 22.5 0 01-6.66 4.39zM316 202.53s-2.08-2.8-6.17-.72c-5.5 2.81-.72 12.88-.72 12.88a13 13 0 016.08-8.53s-1 8.18-.73 10.83a4.85 4.85 0 001.69 3.54s1.14-3.12 3.76-2.1 3.27 7.45-2.26 8.24c0 0 2.71 5.21 5.35 6.15s8.12.4 10.88-2.55a25.21 25.21 0 004.15-5.89l1 .18s-.77 7 3 11.24a11.57 11.57 0 008.48 4.09 19.65 19.65 0 01-.66-5.77c.24-2.46 1.62-15.45-.39-19.84a9.15 9.15 0 00-11.46-4.95s-.83-5.09-7.13-7.74c-10.06-4.23-14.87.94-14.87.94z" fill="#263238"/><path d="M338 209.33s-2.26-.68-3.34 4.13.08 10.44 4.37 11.1c0 0-5.32 1-6.64-4.35-1.11-4.46-.31-12.7 5.61-10.88z" fill="#6957e7"/></g></svg>